<?xml version="1.0" encoding="UTF-8"?>
<svg width="911px" height="951px" viewBox="0 0 911 951" version="1.1" xmlns="http://www.w3.org/2000/svg" xmlns:xlink="http://www.w3.org/1999/xlink" id="internal-svg">
    <!-- Generator: Sketch 47.1 (45422) - http://www.bohemiancoding.com/sketch -->
    <title>svg-splash</title>
    <desc>Created with Sketch.</desc>
    <defs></defs>
    <g id="Page-1" stroke="none" stroke-width="1" fill="none" fill-rule="evenodd">
        <g id="BuildGT-Site" transform="translate(-529.000000, 0.000000)">
            <g id="Layer_1">
                <g id="svg-splash" transform="translate(529.000000, 0.000000)">
                    <path d="M57,1 C-27,122 -17,441 88,535 C215.8,649.4 333.4,635.9 378,780 C446,1000 911,944 911,944 L911,1 L57,1 Z" id="green-bg" fill="#DCF7E4" fill-rule="nonzero"></path>
                    <g id="drone-controls" transform="translate(285.000000, 0.000000)" fill-rule="nonzero">
                        <g id="phone" transform="translate(161.000000, 280.000000)">
                            <path d="M9.4,2.6 L37.5,0.1 C42.8469119,-0.36411446 47.5724501,3.55897385 48.1,8.9 L54.8,84.5 C55.2641145,89.8469119 51.3410261,94.5724501 46,95.1 L17.9,97.6 C12.5530881,98.0641145 7.8275499,94.1410261 7.3,88.8 L0.6,13.1 C0.137746268,7.77271654 4.07393826,3.07612382 9.4,2.6 Z" id="Shape" fill="#CCCCCC"></path>
                            <rect id="Rectangle-path" fill="#FFFFFF" transform="translate(27.366295, 47.873699) rotate(-5.100000) translate(-27.366295, -47.873699) " x="7.01629512" y="11.7836989" width="40.7" height="72.18"></rect>
                            <path d="M14.8,7.4 L33.1,5.8 C33.5731232,5.70352637 33.9097357,5.28276076 33.9,4.8 L33.9,4.8 C33.9080348,4.54813896 33.7969333,4.30721286 33.6001628,4.14979648 C33.4033923,3.99238009 33.1439543,3.93687458 32.9,4 L14.7,5.6 C14.1870987,5.65154198 13.7974168,6.08452193 13.8,6.6 L13.8,6.6 C13.8964736,7.07312322 14.3172392,7.40973571 14.8,7.4 Z" id="Shape" fill="#FFFFFF"></path>
                            <circle id="Oval" fill="#FFFFFF" cx="31.4" cy="89.9" r="3.9"></circle>
                        </g>
                        <path d="M293.6,0.8 L293.2,2.4 L270,115.3 C268.887749,121.103625 263.31776,124.935778 257.5,123.9 L255.5,123.4 L255.5,124 C254.336332,129.95725 248.708891,133.958008 242.7,133.1 L242.4,133.1 C240.608725,132.786878 238.924251,132.030584 237.5,130.9 C236.808866,133.503017 235.301861,135.816094 233.2,137.5 C230.472459,139.596505 226.981459,140.432891 223.6,139.8 C217.861555,138.758609 213.643352,133.830411 213.5,128 C213.501533,127.190745 213.602284,126.384732 213.8,125.6 L213.8,125.2 L217.6,106.5 L220.1,93.6 L223.9,74.9 L225.1,68.5 L228.1,53.3 L229.5,46.6 L231.9,34.3 L238.5,0.8 L293.6,0.8 Z" id="Shape" fill="#DBB395"></path>
                        <path d="M58.1,0.8 L57.1,21 L56.8,25.3 L56.5,32.2 L55.3,56.1 L54.9,65 L54.9,65 L52.9,103.7 L52.5,112.3 C52.3842052,115.554186 50.8942696,118.606737 48.4,120.7 C44.049897,124.535902 37.5897637,124.745646 33,121.2 C32.4864996,120.820008 32.0169362,120.383985 31.6,119.9 C30.8262257,119.14525 30.1840448,118.266476 29.7,117.3 C28.8281258,115.732212 28.3157619,113.990174 28.2,112.2 L28.2,111.7 L28.1,111.7 C26.4630975,112.40991 24.6802769,112.718475 22.9,112.6 L22.1,112.6 C16.5442806,111.849166 12.399549,107.106226 12.4,101.5 L12.4,100.2 C11.7370881,100.300063 11.0629119,100.300063 10.4,100.2 C4.47085637,99.824782 -0.0419165179,94.7311572 0.3,88.8 L4.6,3.9 C4.68393577,2.88024952 4.88526745,1.87359113 5.2,0.9 L58.1,0.8 Z" id="Shape" fill="#DBB395"></path>
                        <path d="M55.8,176 L55.8,176 C53.691731,176.690018 51.3949767,176.507378 49.422256,175.492836 C47.4495353,174.478293 45.9650277,172.716285 45.3,170.6 L25,101.3 L24.5,100.8 L43.2,102.9 L61.3,165.5 C62.6697578,169.917285 60.2112249,174.610848 55.8,176 L55.8,176 Z" id="Shape" fill="#F2CAA9"></path>
                        <rect id="Rectangle-path" fill="#CCCCCC" transform="translate(133.622359, 112.745741) rotate(-83.000000) translate(-133.622359, -112.745741) " x="56.1723594" y="2.06074097" width="154.9" height="221.37" rx="15.9"></rect>
                        <rect id="Rectangle-path" fill="#FFFFFF" transform="translate(135.274999, 111.064245) rotate(-173.000000) translate(-135.274999, -111.064245) " x="35.0249992" y="42.2842446" width="200.5" height="137.56"></rect>
                        <circle id="Oval" fill="#CCCCCC" cx="195.2" cy="95.3" r="35.1"></circle>
                        <circle id="Oval" fill="#FFFFFF" cx="195.2" cy="95.3" r="24.9"></circle>
                        <circle id="Oval" fill="#CCCCCC" cx="79.9" cy="81.1" r="35.1"></circle>
                        <circle id="Oval" fill="#FEFEFE" cx="81.7" cy="99.9" r="9"></circle>
                        <g id="Group" transform="translate(171.000000, 72.000000)">
                            <circle id="Oval" fill="#E2E2E2" cx="24.2" cy="23.3" r="9"></circle>
                            <rect id="Rectangle-path" fill="#E2E2E2" transform="translate(17.229077, 16.031695) rotate(-137.900000) translate(-17.229077, -16.031695) " x="7.1290772" y="7.08169507" width="20.2" height="17.9"></rect>
                            <circle id="Oval" fill="#FEFEFE" cx="9.2" cy="9.7" r="9"></circle>
                        </g>
                        <path d="M177.6,70.8 L224.8,37.9 C230.4,34 243.2,28.9 248.7,35 L275.8,32.9 L273.3,67.5 L237.2,67.2 L210.6,69.8 L188.1,85.5 C184.019267,88.3049703 178.450433,87.3768312 175.5,83.4 L175.5,83.4 C174.099029,81.4535406 173.532854,79.0284352 173.927118,76.662853 C174.321382,74.2972707 175.643473,72.1868765 177.6,70.8 L177.6,70.8 Z" id="Shape" fill="#DBB395"></path>
                        <circle id="Oval" fill="#FFFFFF" cx="79.9" cy="81.1" r="24.9"></circle>
                        <g id="Group" transform="translate(70.000000, 71.000000)">
                            <circle id="Oval" fill="#E2E2E2" cx="9.5" cy="9.2" r="9"></circle>
                            <rect id="Rectangle-path" fill="#E2E2E2" transform="translate(10.845109, 19.133529) rotate(84.000000) translate(-10.845109, -19.133529) " x="0.745109336" y="10.1835292" width="20.2" height="17.9"></rect>
                            <circle id="Oval" fill="#FEFEFE" cx="11.6" cy="29.3" r="9"></circle>
                        </g>
                        <path d="M81.2,103.4 L81.2,103.4 C76.4315671,104.775138 71.4318522,102.120422 69.9,97.4 L61.6,71.2 L42,53 L13.2,31.3 L32.2,2.3 L52.4,20.4 C60.5,18.9 67.6,30.7 69.7,37.2 L87.2,92.1 C88.6322475,96.8742207 85.9572063,101.912215 81.2,103.4 L81.2,103.4 Z" id="Shape" fill="#DBB395"></path>
                    </g>
                    <g id="drone" transform="translate(99.000000, 212.000000)" fill-rule="nonzero">
                        <rect id="Rectangle-path" fill="#405359" transform="translate(109.808019, 132.509966) rotate(7.200000) translate(-109.808019, -132.509966) " x="72.058019" y="78.6199658" width="75.5" height="107.78"></rect>
                        <rect id="Rectangle-path" fill="#405359" transform="translate(109.396672, 132.409696) rotate(42.300000) translate(-109.396672, -132.409696) " x="104.896672" y="23.0546957" width="9" height="218.71"></rect>
                        <rect id="Rectangle-path" fill="#405359" transform="translate(109.630501, 131.896904) rotate(152.200000) translate(-109.630501, -131.896904) " x="105.130501" y="22.5419042" width="9" height="218.71"></rect>
                        <g id="rotor-tl" transform="translate(14.000000, 0.000000)">
                            <path d="M49.9,38 L65.6,28.6 L92,4.4 C92,4.4 93.5,2.6 92.4,1 C91.3,-0.6 89.3,0.4 89.3,0.4 L52.8,21.3 L47.8,32.1 L49.9,38 Z" id="Shape" fill="#CCCCCC"></path>
                            <circle id="Oval" fill="#CCCCCC" cx="44.9" cy="36.8" r="10.7"></circle>
                            <path d="M43.7,35.1 L28,44.5 L1.6,68.7 C1.6,68.7 0.1,70.5 1.2,72.1 C2.3,73.7 4.2,72.7 4.2,72.7 L40.7,51.8 L45.8,41 L43.7,35.1 Z" id="Shape" fill="#CCCCCC"></path>
                            <circle id="Oval" fill="#FFFFFF" cx="44.9" cy="36.8" r="5.4"></circle>
                        </g>
                        <path d="M178.3,53.1 L165.4,40.1 L145.9,10 C145.9,10 144.9,7.9 146.3,6.7 C147.7,5.5 149.5,6.8 149.5,6.8 L179.6,36.2 L181.8,47.8 L178.3,53.1 Z" id="Shape" fill="#CCCCCC"></path>
                        <circle id="Oval" fill="#CCCCCC" cx="183.4" cy="53.2" r="10.7"></circle>
                        <path d="M204,52.8 L216.8,65.8 L236.4,95.9 C236.4,95.9 237.4,98 235.9,99.2 C234.4,100.4 232.8,99.1 232.8,99.1 L202.7,69.7 L200.5,58 L204,52.8 Z" id="Shape" fill="#CCCCCC"></path>
                        <circle id="Oval" fill="#FFFFFF" cx="183.4" cy="53.2" r="5.4"></circle>
                        <g id="rotor-br" transform="translate(113.000000, 192.000000)">
                            <path d="M43.7,35.4 L28,44.8 L1.6,69 C1.6,69 0.1,70.8 1.2,72.4 C2.3,74 4.3,73.1 4.3,73.1 L40.8,52.1 L45.8,41.4 L43.7,35.4 Z" id="Shape" fill="#CCCCCC"></path>
                            <circle id="Oval" fill="#CCCCCC" cx="48.7" cy="36.6" r="10.7"></circle>
                            <path d="M49.9,38.3 L65.6,28.9 L92,4.7 C92,4.7 93.5,2.9 92.4,1.3 C91.3,-0.3 89.4,0.7 89.4,0.7 L52.9,21.6 L47.8,32.4 L49.9,38.3 Z" id="Shape" fill="#CCCCCC"></path>
                            <circle id="Oval" fill="#FFFFFF" cx="48.7" cy="36.6" r="5.4"></circle>
                        </g>
                        <g id="rotor-bl" transform="translate(0.000000, 166.000000)">
                            <path d="M40,46.6 L52.9,59.6 L72.4,89.7 C72.4,89.7 73.4,91.8 72,93 C70.6,94.2 68.8,92.9 68.8,92.9 L38.7,63.5 L36.5,51.9 L40,46.6 Z" id="Shape" fill="#CCCCCC"></path>
                            <circle id="Oval" fill="#CCCCCC" cx="34.9" cy="46.5" r="10.7"></circle>
                            <path d="M33.3,47.9 L20.4,34.9 L0.9,4.8 C0.9,4.8 -0.1,2.7 1.4,1.5 C2.9,0.3 4.5,1.6 4.5,1.6 L34.6,31 L36.8,42.7 L33.3,47.9 Z" id="Shape" fill="#CCCCCC"></path>
                            <circle id="Oval" fill="#FFFFFF" cx="34.9" cy="46.5" r="5.4"></circle>
                        </g>
                        <g id="Group" transform="translate(75.000000, 82.000000)">
                            <rect id="Rectangle-path" fill="#333333" transform="translate(16.567650, 46.340550) rotate(97.480886) translate(-16.567650, -46.340550) " x="14.5207273" y="33.8443366" width="4.09384538" height="24.9924268"></rect>
                            <rect id="Rectangle-path" fill="#CCCCCC" transform="translate(5.187250, 54.480750) rotate(97.480886) translate(-5.187250, -54.480750) " x="-0.00494414121" y="52.4587898" width="10.3843883" height="4.04392044"></rect>
                            <rect id="Rectangle-path" fill="#333333" transform="translate(19.086775, 51.670729) rotate(97.200000) translate(-19.086775, -51.670729) " x="16.9367753" y="43.2807287" width="4.3" height="16.78"></rect>
                            <rect id="Rectangle-path" fill="#333333" transform="translate(39.543100, 5.409700) rotate(97.480886) translate(-39.543100, -5.409700) " x="37.3464025" y="-6.18287192" width="4.39339504" height="23.1851438"></rect>
                            <rect id="Rectangle-path" fill="#4B8C69" transform="translate(36.486029, 49.345142) rotate(-82.800000) translate(-36.486029, -49.345142) " x="-9.36397139" y="19.0651421" width="91.7" height="60.56" rx="2.6"></rect>
                            <g transform="translate(63.000000, 7.000000)" id="Oval">
                                <circle fill="#DDDE41" cx="4.9" cy="4.4" r="4.1"></circle>
                                <circle fill="#EDFCFF" cx="4.9" cy="4.4" r="2.4"></circle>
                            </g>
                            <rect id="Rectangle-path" fill="#CCCCCC" transform="translate(64.353094, 42.643404) rotate(97.200000) translate(-64.353094, -42.643404) " x="37.1030939" y="40.2684037" width="54.5" height="4.75"></rect>
                            <g transform="translate(55.000000, 69.000000)" id="Oval">
                                <circle fill="#DDDE41" cx="5" cy="4.4" r="4.1"></circle>
                                <circle fill="#EDFCFF" cx="5" cy="4.4" r="2.4"></circle>
                            </g>
                            <rect id="Rectangle-path" fill="#333333" transform="translate(39.802200, 2.686400) rotate(97.480886) translate(-39.802200, -2.686400) " x="38.3543766" y="-4.57268681" width="2.89564673" height="14.5181736"></rect>
                            <rect id="Rectangle-path" fill="#CCCCCC" transform="translate(39.279700, 6.563900) rotate(97.480886) translate(-39.279700, -6.563900) " x="38.1813512" y="-0.695186809" width="2.19669752" height="14.5181736"></rect>
                            <rect id="Rectangle-path" fill="#333333" transform="translate(42.342594, 33.633438) rotate(97.200000) translate(-42.342594, -33.633438) " x="34.0925942" y="25.1734376" width="16.5" height="16.92"></rect>
                            <rect id="Rectangle-path" fill="#333333" transform="translate(41.019967, 70.084227) rotate(97.200000) translate(-41.019967, -70.084227) " x="35.8699674" y="64.8392273" width="10.3" height="10.49"></rect>
                            <rect id="Rectangle-path" fill="#333333" transform="translate(9.788730, 57.766207) rotate(97.200000) translate(-9.788730, -57.766207) " x="6.63872991" y="49.3762074" width="6.3" height="16.78"></rect>
                            <rect id="Rectangle-path" fill="#CCCCCC" transform="translate(13.268345, 12.999545) rotate(97.200000) translate(-13.268345, -12.999545) " x="8.96834486" y="8.87454528" width="8.6" height="8.25"></rect>
                            <rect id="Rectangle-path" fill="#CCCCCC" transform="translate(13.764273, 35.136391) rotate(97.200000) translate(-13.764273, -35.136391) " x="4.26427309" y="27.7963915" width="19" height="14.68"></rect>
                            <rect id="Rectangle-path" fill="#CCCCCC" transform="translate(11.858192, 83.269479) rotate(97.200000) translate(-11.858192, -83.269479) " x="0.308192325" y="73.8994793" width="23.1" height="18.74"></rect>
                            <rect id="Rectangle-path" fill="#CCCCCC" transform="translate(29.592700, 84.544900) rotate(97.480886) translate(-29.592700, -84.544900) " x="20.1069607" y="77.2858132" width="18.9714786" height="14.5181736"></rect>
                            <rect id="Rectangle-path" fill="#CCCCCC" transform="translate(52.237928, 90.396402) rotate(97.200000) translate(-52.237928, -90.396402) " x="42.7379282" y="82.0064015" width="19" height="16.78"></rect>
                            <g transform="translate(4.000000, 62.000000)" id="Oval">
                                <circle fill="#DDDE41" cx="4.3" cy="4.9" r="4.1"></circle>
                                <circle fill="#EDFCFF" cx="4.3" cy="4.9" r="2.4"></circle>
                            </g>
                            <g transform="translate(12.000000, 0.000000)" id="Oval">
                                <circle fill="#DDDE41" cx="4.1" cy="5" r="4.1"></circle>
                                <circle fill="#EDFCFF" cx="4.1" cy="5" r="2.4"></circle>
                            </g>
                            <rect id="Rectangle-path" fill="#CCCCCC" transform="translate(19.405931, 48.505713) rotate(97.200000) translate(-19.405931, -48.505713) " x="18.4059309" y="40.1157133" width="2" height="16.78"></rect>
                        </g>
                    </g>
                    <g id="laptop" transform="translate(417.000000, 336.000000)" fill-rule="nonzero">
                        <path d="M55.7,216.2 L257,58.3 C259.598686,56.2670565 263.351214,56.713786 265.4,59.3 L367.9,189.9 C369.877597,192.513923 369.435992,196.223409 366.9,198.3 L165.5,356.2 C162.901314,358.232943 159.148786,357.786214 157.1,355.2 L54.7,224.6 C52.6670565,222.001314 53.113786,218.248786 55.7,216.2 L55.7,216.2 Z" id="Shape" fill="#FFFFFF"></path>
                        <path d="M64.8,209.1 L76.5,199.9 L81.7,206.6 C81.9393819,206.872657 82.0539251,207.232947 82.0159424,207.593783 C81.9779596,207.954619 81.7909075,208.283163 81.5,208.5 L72,216 C71.387347,216.419787 70.5535086,216.288128 70.1,215.7 L64.8,209.1 Z" id="Shape" fill="#B3B4B4"></path>
                        <path d="M236.2,74.6 L247.9,65.5 L253.1,72.1 C253.344289,72.3894194 253.460895,72.7654652 253.42321,73.142321 C253.385524,73.5191768 253.196762,73.8646857 252.9,74.1 L243.4,81.5 C243.127343,81.7393819 242.767053,81.8539251 242.406217,81.8159424 C242.045381,81.7779596 241.716837,81.5909075 241.5,81.3 L236.2,74.6 L236.2,74.6 Z" id="Shape" fill="#B3B4B4"></path>
                        <path d="M4.6,191.2 L244.5,3.1 C250.3,-1.5 254.1,-0.2 254.7,5.4 L259.3,52.6 L49.1,217.5 L9.1,203.3 C0.1,200.1 -1.7,196.2 4.6,191.2 Z" id="Shape" fill="#CCCCCC"></path>
                        <polygon id="Shape" fill="#FFFFFF" points="244.9 18.2 249.2 53.7 52.8 207.8 19.2 195.3"></polygon>
                        <path d="M4,193.1 L247.1,2.4 C247.35089,2.19836884 247.672264,2.10598041 247.991931,2.14358823 C248.311597,2.18119606 248.602755,2.34564705 248.8,2.6 L248.8,2.6 C249.001631,2.85089023 249.09402,3.17226428 249.056412,3.4919308 C249.018804,3.81159731 248.854353,4.10275496 248.6,4.3 L5.5,195 C5.24910977,195.201631 4.92773572,195.29402 4.6080692,195.256412 C4.28840269,195.218804 3.99724504,195.054353 3.8,194.8 L3.8,194.8 C3.59836884,194.54911 3.50598041,194.227736 3.54358823,193.908069 C3.58119606,193.588403 3.74564705,193.297245 4,193.1 Z" id="Shape" fill="#FFFFFF"></path>
                        <path d="M61.8,201.7 L70.1,195.2 C70.3376219,194.967522 70.6676324,194.854973 70.9977865,194.893815 C71.3279405,194.932657 71.6228201,195.118721 71.8,195.4 L79.6,205.2 C79.9826568,205.768134 79.898036,206.529721 79.4,207 L71,213.5 C70.7491098,213.701631 70.4277357,213.79402 70.1080692,213.756412 C69.7884027,213.718804 69.497245,213.554353 69.3,213.3 L61.5,203.4 C61.3087437,203.136632 61.2326761,202.806871 61.2892409,202.486337 C61.3458057,202.165803 61.5301501,201.881996 61.8,201.7 Z" id="Shape" fill="#FFFFFF"></path>
                        <path d="M233.1,67.3 L241.5,60.7 C241.75089,60.4983688 242.072264,60.4059804 242.391931,60.4435882 C242.711597,60.4811961 243.002755,60.645647 243.2,60.9 L251,70.8 C251.201631,71.0508902 251.29402,71.3722643 251.256412,71.6919308 C251.218804,72.0115973 251.054353,72.302755 250.8,72.5 L242.4,79.1 C242.14911,79.3016312 241.827736,79.3940196 241.508069,79.3564118 C241.188403,79.3188039 240.897245,79.154353 240.7,78.9 L232.9,69 C232.698369,68.7491098 232.60598,68.4277357 232.643588,68.1080692 C232.681196,67.7884027 232.845647,67.497245 233.1,67.3 L233.1,67.3 Z" id="Shape" fill="#FFFFFF"></path>
                        <path d="M255.9,89.3 L262.4,84.2 C263.158015,83.6675474 264.196374,83.7973423 264.8,84.5 L268.6,89.4 C269.132453,90.1580149 269.002658,91.1963739 268.3,91.8 L261.8,96.9 C261.041985,97.4324526 260.003626,97.3026577 259.4,96.6 L255.6,91.7 C255.318836,91.3429857 255.192316,90.8882623 255.248682,90.4373352 C255.305048,89.9864081 255.539607,89.5768196 255.9,89.3 L255.9,89.3 Z" id="Shape" fill="#CCCCCC"></path>
                        <path d="M263.4,98.3 L269.3,93.7 C270.189909,93.0033686 271.47154,93.1359511 272.2,94 L277.4,100.6 C278.073445,101.515626 277.896169,102.800873 277,103.5 L271.1,108.2 C270.184374,108.873445 268.899127,108.696169 268.2,107.8 L263,101.3 C262.315037,100.352566 262.49073,99.0348691 263.4,98.3 Z" id="Shape" fill="#CCCCCC"></path>
                        <path d="M272.4,109.9 L278.3,105.2 C279.247434,104.515037 280.565131,104.69073 281.3,105.6 L286.4,112.1 C287.108641,113.022111 286.977204,114.336474 286.1,115.1 L280.2,119.7 C279.252566,120.384963 277.934869,120.20927 277.2,119.3 L272.1,112.8 C271.403369,111.910091 271.535951,110.62846 272.4,109.9 L272.4,109.9 Z" id="Shape" fill="#CCCCCC"></path>
                        <path d="M281.5,121.4 L287.4,116.8 C287.817427,116.438598 288.36569,116.26584 288.914898,116.322654 C289.464106,116.379469 289.965393,116.660801 290.3,117.1 L295.5,123.7 C296.173445,124.615626 295.996169,125.900873 295.1,126.6 L289.2,131.2 C288.310091,131.896631 287.02846,131.764049 286.3,130.9 L281.1,124.3 C280.426555,123.384374 280.603831,122.099127 281.5,121.4 L281.5,121.4 Z" id="Shape" fill="#CCCCCC"></path>
                        <path d="M290.5,132.9 L296.4,128.3 C297.322111,127.591359 298.636474,127.722796 299.4,128.6 L304.5,135.2 C304.850817,135.630304 305.006983,136.18707 304.931123,136.737052 C304.855264,137.287033 304.554206,137.780734 304.1,138.1 L298.2,142.7 C297.782573,143.061402 297.23431,143.23416 296.685102,143.177346 C296.135894,143.120531 295.634607,142.839199 295.3,142.4 L290.2,135.8 C289.503369,134.910091 289.635951,133.62846 290.5,132.9 Z" id="Shape" fill="#CCCCCC"></path>
                        <path d="M299.6,144.4 L305.5,139.8 C306.415626,139.126555 307.700873,139.303831 308.4,140.2 L313.5,146.7 C313.861402,147.117427 314.03416,147.66569 313.977346,148.214898 C313.920531,148.764106 313.639199,149.265393 313.2,149.6 L307.3,154.3 C306.384374,154.973445 305.099127,154.796169 304.4,153.9 L299.2,147.4 C298.515037,146.452566 298.69073,145.134869 299.6,144.4 Z" id="Shape" fill="#CCCCCC"></path>
                        <path d="M244.4,98.4 L250.9,93.3 C251.244459,93.0075105 251.691196,92.8641999 252.141523,92.9017271 C252.591849,92.9392543 253.008704,93.1545309 253.3,93.5 L257.1,98.4 C257.381164,98.7570143 257.507684,99.2117377 257.451318,99.6626648 C257.394952,100.113592 257.160393,100.52318 256.8,100.8 L250.3,105.9 C249.942986,106.181164 249.488262,106.307684 249.037335,106.251318 C248.586408,106.194952 248.17682,105.960393 247.9,105.6 L244.1,100.8 C243.789581,100.454924 243.644311,99.9920535 243.701882,99.5314852 C243.759453,99.0709169 244.01419,98.6580475 244.4,98.4 L244.4,98.4 Z" id="Shape" fill="#CCCCCC"></path>
                        <path d="M241.4,115.6 L257.7,102.8 C258.151831,102.410825 258.747812,102.232097 259.339237,102.30841 C259.930663,102.384723 260.461756,102.70888 260.8,103.2 L265.8,109.5 C266.189175,109.951831 266.367903,110.547812 266.29159,111.139237 C266.215277,111.730663 265.89112,112.261756 265.4,112.6 L249.1,125.4 C248.648169,125.789175 248.052188,125.967903 247.460763,125.89159 C246.869337,125.815277 246.338244,125.49112 246,125 L241,118.7 C240.302838,117.720888 240.477136,116.370076 241.4,115.6 Z" id="Shape" fill="#CCCCCC"></path>
                        <path d="M257.9,121.2 L266.7,114.3 C267.697155,113.53796 269.121105,113.715954 269.9,114.7 L274.8,121 C275.585516,121.971168 275.452335,123.391756 274.5,124.2 L265.6,131.1 C265.136879,131.460711 264.548807,131.621378 263.966612,131.546256 C263.384418,131.471134 262.85639,131.166455 262.5,130.7 L257.6,124.4 C256.814484,123.428832 256.947665,122.008244 257.9,121.2 Z" id="Shape" fill="#CCCCCC"></path>
                        <path d="M258.2,139.6 L275.8,125.9 C276.250627,125.528113 276.830676,125.350752 277.412223,125.407031 C277.99377,125.46331 278.529045,125.748606 278.9,126.2 L283.9,132.5 C284.66204,133.497155 284.484046,134.921105 283.5,135.7 L265.9,149.5 C265.436879,149.860711 264.848807,150.021378 264.266612,149.946256 C263.684418,149.871134 263.15639,149.566455 262.8,149.1 L257.8,142.8 C257.03796,141.802845 257.215954,140.378895 258.2,139.6 L258.2,139.6 Z" id="Shape" fill="#CCCCCC"></path>
                        <path d="M279,141.9 L284.9,137.3 C285.822111,136.591359 287.136474,136.722796 287.9,137.6 L293,144.2 C293.696631,145.089909 293.564049,146.37154 292.7,147.1 L286.8,151.8 C285.852566,152.484963 284.534869,152.30927 283.8,151.4 L278.7,144.9 C277.991359,143.977889 278.122796,142.663526 279,141.9 L279,141.9 Z" id="Shape" fill="#CCCCCC"></path>
                        <path d="M288.1,153.5 L294,148.8 C294.915626,148.126555 296.200873,148.303831 296.9,149.2 L302.1,155.7 C302.784963,156.647434 302.60927,157.965131 301.7,158.7 L295.8,163.3 C294.884374,163.973445 293.599127,163.796169 292.9,162.9 L287.7,156.4 C287.026555,155.484374 287.203831,154.199127 288.1,153.5 L288.1,153.5 Z" id="Shape" fill="#CCCCCC"></path>
                        <path d="M233.8,106.7 L239.4,102.3 C239.757014,102.018836 240.211738,101.892316 240.662665,101.948682 C241.113592,102.005048 241.52318,102.239607 241.8,102.6 L245.6,107.4 C245.881164,107.757014 246.007684,108.211738 245.951318,108.662665 C245.894952,109.113592 245.660393,109.52318 245.3,109.8 L239.7,114.2 C239.342986,114.481164 238.888262,114.607684 238.437335,114.551318 C237.986408,114.494952 237.57682,114.260393 237.3,113.9 L233.5,109.1 C233.189581,108.754924 233.044311,108.292054 233.101882,107.831485 C233.159453,107.370917 233.41419,106.958048 233.8,106.7 L233.8,106.7 Z" id="Shape" fill="#CCCCCC"></path>
                        <path d="M223,115.1 L228.6,110.7 C228.957014,110.418836 229.411738,110.292316 229.862665,110.348682 C230.313592,110.405048 230.72318,110.639607 231,111 L234.8,115.8 C235.110419,116.145076 235.255689,116.607946 235.198118,117.068515 C235.140547,117.529083 234.88581,117.941952 234.5,118.2 L228.9,122.7 C228.141985,123.232453 227.103626,123.102658 226.5,122.4 L222.7,117.5 C222.418836,117.142986 222.292316,116.688262 222.348682,116.237335 C222.405048,115.786408 222.639607,115.37682 223,115.1 Z" id="Shape" fill="#CCCCCC"></path>
                        <path d="M212.2,123.6 L217.8,119.2 C218.145076,118.889581 218.607946,118.744311 219.068515,118.801882 C219.529083,118.859453 219.941952,119.11419 220.2,119.5 L224,124.3 C224.281164,124.657014 224.407684,125.111738 224.351318,125.562665 C224.294952,126.013592 224.060393,126.42318 223.7,126.7 L218.1,131.1 C217.742986,131.381164 217.288262,131.507684 216.837335,131.451318 C216.386408,131.394952 215.97682,131.160393 215.7,130.8 L211.9,126 C211.618836,125.642986 211.492316,125.188262 211.548682,124.737335 C211.605048,124.286408 211.839607,123.87682 212.2,123.6 Z" id="Shape" fill="#CCCCCC"></path>
                        <path d="M201.4,132.1 L207,127.6 C207.758015,127.067547 208.796374,127.197342 209.4,127.9 L213.2,132.8 C213.481164,133.157014 213.607684,133.611738 213.551318,134.062665 C213.494952,134.513592 213.260393,134.92318 212.9,135.2 L207.3,139.6 C206.942986,139.881164 206.488262,140.007684 206.037335,139.951318 C205.586408,139.894952 205.17682,139.660393 204.9,139.3 L201.1,134.5 C200.567547,133.741985 200.697342,132.703626 201.4,132.1 L201.4,132.1 Z" id="Shape" fill="#CCCCCC"></path>
                        <path d="M190.6,140.5 L196.3,136.1 C196.657014,135.818836 197.111738,135.692316 197.562665,135.748682 C198.013592,135.805048 198.42318,136.039607 198.7,136.4 L202.5,141.2 C203.032453,141.958015 202.902658,142.996374 202.2,143.6 L196.5,148 C196.142986,148.281164 195.688262,148.407684 195.237335,148.351318 C194.786408,148.294952 194.37682,148.060393 194.1,147.7 L190.4,142.9 C190.107511,142.555541 189.9642,142.108804 190.001727,141.658477 C190.039254,141.208151 190.254531,140.791296 190.6,140.5 Z" id="Shape" fill="#CCCCCC"></path>
                        <path d="M179.9,149 L185.5,144.6 C185.844459,144.307511 186.291196,144.1642 186.741523,144.201727 C187.191849,144.239254 187.608704,144.454531 187.9,144.8 L191.7,149.7 C192.232453,150.458015 192.102658,151.496374 191.4,152.1 L185.8,156.5 C185.442986,156.781164 184.988262,156.907684 184.537335,156.851318 C184.086408,156.794952 183.67682,156.560393 183.4,156.2 L179.6,151.4 C179.289581,151.054924 179.144311,150.592054 179.201882,150.131485 C179.259453,149.670917 179.51419,149.258048 179.9,149 Z" id="Shape" fill="#CCCCCC"></path>
                        <path d="M169.1,157.4 L174.7,153 C175.057014,152.718836 175.511738,152.592316 175.962665,152.648682 C176.413592,152.705048 176.82318,152.939607 177.1,153.3 L180.9,158.1 C181.181164,158.457014 181.307684,158.911738 181.251318,159.362665 C181.194952,159.813592 180.960393,160.22318 180.6,160.5 L175,164.9 C174.655541,165.192489 174.208804,165.3358 173.758477,165.298273 C173.308151,165.260746 172.891296,165.045469 172.6,164.7 L168.8,159.8 C168.518836,159.442986 168.392316,158.988262 168.448682,158.537335 C168.505048,158.086408 168.739607,157.67682 169.1,157.4 L169.1,157.4 Z" id="Shape" fill="#CCCCCC"></path>
                        <path d="M158.3,165.9 L163.9,161.5 C164.245076,161.189581 164.707946,161.044311 165.168515,161.101882 C165.629083,161.159453 166.041952,161.41419 166.3,161.8 L170.1,166.6 C170.381164,166.957014 170.507684,167.411738 170.451318,167.862665 C170.394952,168.313592 170.160393,168.72318 169.8,169 L164.2,173.4 C163.854924,173.710419 163.392054,173.855689 162.931485,173.798118 C162.470917,173.740547 162.058048,173.48581 161.8,173.1 L158,168.3 C157.689581,167.954924 157.544311,167.492054 157.601882,167.031485 C157.659453,166.570917 157.91419,166.158048 158.3,165.9 L158.3,165.9 Z" id="Shape" fill="#CCCCCC"></path>
                        <path d="M147.5,174.3 L153.1,169.9 C153.858015,169.367547 154.896374,169.497342 155.5,170.2 L159.3,175.1 C159.581164,175.457014 159.707684,175.911738 159.651318,176.362665 C159.594952,176.813592 159.360393,177.22318 159,177.5 L153.4,181.9 C152.641985,182.432453 151.603626,182.302658 151,181.6 L147.2,176.7 C146.918836,176.342986 146.792316,175.888262 146.848682,175.437335 C146.905048,174.986408 147.139607,174.57682 147.5,174.3 L147.5,174.3 Z" id="Shape" fill="#CCCCCC"></path>
                        <path d="M136.7,182.8 L142.3,178.4 C142.645076,178.089581 143.107946,177.944311 143.568515,178.001882 C144.029083,178.059453 144.441952,178.31419 144.7,178.7 L148.5,183.5 C148.810419,183.845076 148.955689,184.307946 148.898118,184.768515 C148.840547,185.229083 148.58581,185.641952 148.2,185.9 L142.6,190.3 C142.242986,190.581164 141.788262,190.707684 141.337335,190.651318 C140.886408,190.594952 140.47682,190.360393 140.2,190 L136.4,185.2 C135.867547,184.441985 135.997342,183.403626 136.7,182.8 L136.7,182.8 Z" id="Shape" fill="#CCCCCC"></path>
                        <path d="M125.9,191.3 L131.6,186.9 C131.944459,186.607511 132.391196,186.4642 132.841523,186.501727 C133.291849,186.539254 133.708704,186.754531 134,187.1 L137.8,192 C138.332453,192.758015 138.202658,193.796374 137.5,194.4 L131.8,198.8 C131.442986,199.081164 130.988262,199.207684 130.537335,199.151318 C130.086408,199.094952 129.67682,198.860393 129.4,198.5 L125.6,193.7 C125.067547,192.941985 125.197342,191.903626 125.9,191.3 L125.9,191.3 Z" id="Shape" fill="#CCCCCC"></path>
                        <path d="M115.2,199.7 L120.8,195.3 C121.157014,195.018836 121.611738,194.892316 122.062665,194.948682 C122.513592,195.005048 122.92318,195.239607 123.2,195.6 L127,200.4 C127.532453,201.158015 127.402658,202.196374 126.7,202.8 L121.1,207.2 C120.755541,207.492489 120.308804,207.6358 119.858477,207.598273 C119.408151,207.560746 118.991296,207.345469 118.7,207 L114.9,202.1 C114.618836,201.742986 114.492316,201.288262 114.548682,200.837335 C114.605048,200.386408 114.839607,199.97682 115.2,199.7 L115.2,199.7 Z" id="Shape" fill="#CCCCCC"></path>
                        <path d="M104.4,208.2 L110,203.8 C110.357014,203.518836 110.811738,203.392316 111.262665,203.448682 C111.713592,203.505048 112.12318,203.739607 112.4,204.1 L116.2,208.9 C116.481164,209.257014 116.607684,209.711738 116.551318,210.162665 C116.494952,210.613592 116.260393,211.02318 115.9,211.3 L110.3,215.7 C109.954924,216.010419 109.492054,216.155689 109.031485,216.098118 C108.570917,216.040547 108.158048,215.78581 107.9,215.4 L104.1,210.6 C103.789581,210.254924 103.644311,209.792054 103.701882,209.331485 C103.759453,208.870917 104.01419,208.458048 104.4,208.2 Z" id="Shape" fill="#CCCCCC"></path>
                        <path d="M93.6,216.6 L99.2,212.2 C99.5570143,211.918836 100.011738,211.792316 100.462665,211.848682 C100.913592,211.905048 101.32318,212.139607 101.6,212.5 L105.4,217.4 C105.707567,217.727443 105.852181,218.1755 105.794076,218.620966 C105.735972,219.066433 105.481267,219.462405 105.1,219.7 L99.5,224.2 C98.7419851,224.732453 97.7036261,224.602658 97.1,223.9 L93.3,219 C93.018836,218.642986 92.8923158,218.188262 92.9486817,217.737335 C93.0050476,217.286408 93.2396068,216.87682 93.6,216.6 L93.6,216.6 Z" id="Shape" fill="#CCCCCC"></path>
                        <path d="M81.5,226.1 L88,221 C88.7580149,220.467547 89.7963739,220.597342 90.4,221.3 L94.2,226.2 C94.7324526,226.958015 94.6026577,227.996374 93.9,228.6 L87.4,233.7 C86.6419851,234.232453 85.6036261,234.102658 85,233.4 L81.2,228.5 C80.918836,228.142986 80.7923158,227.688262 80.8486817,227.237335 C80.9050476,226.786408 81.1396068,226.37682 81.5,226.1 L81.5,226.1 Z" id="Shape" fill="#CCCCCC"></path>
                        <path d="M229.8,124.7 L235.6,120.2 C236.489909,119.503369 237.77154,119.635951 238.5,120.5 L243.6,127.1 C244.296631,127.989909 244.164049,129.27154 243.3,130 L237.5,134.5 C236.610091,135.196631 235.32846,135.064049 234.6,134.2 L229.4,127.6 C228.726555,126.684374 228.903831,125.399127 229.8,124.7 L229.8,124.7 Z" id="Shape" fill="#CCCCCC"></path>
                        <path d="M218.1,133.9 L223.9,129.3 C224.815626,128.626555 226.100873,128.803831 226.8,129.7 L231.9,136.3 C232.596631,137.189909 232.464049,138.47154 231.6,139.2 L225.8,143.7 C224.89631,144.34681 223.652147,144.218104 222.9,143.4 L217.7,136.8 C217.026555,135.884374 217.203831,134.599127 218.1,133.9 Z" id="Shape" fill="#CCCCCC"></path>
                        <path d="M206.4,143.1 L212.2,138.5 C213.115626,137.826555 214.400873,138.003831 215.1,138.9 L220.2,145.5 C220.885365,146.357503 220.751473,147.607158 219.9,148.3 L214.1,152.9 C213.184374,153.573445 211.899127,153.396169 211.2,152.5 L206,145.9 C205.653334,145.486433 205.498884,144.944963 205.575201,144.410743 C205.651518,143.876523 205.951402,143.399958 206.4,143.1 L206.4,143.1 Z" id="Shape" fill="#CCCCCC"></path>
                        <path d="M194.7,152.2 L200.5,147.7 C201.389909,147.003369 202.67154,147.135951 203.4,148 L208.5,154.6 C209.196631,155.489909 209.064049,156.77154 208.2,157.5 L202.4,162.1 C201.484374,162.773445 200.199127,162.596169 199.5,161.7 L194.3,155.1 C193.626555,154.184374 193.803831,152.899127 194.7,152.2 Z" id="Shape" fill="#CCCCCC"></path>
                        <path d="M183,161.4 L188.8,156.9 C189.689909,156.203369 190.97154,156.335951 191.7,157.2 L196.8,163.8 C197.496631,164.689909 197.364049,165.97154 196.5,166.7 L190.7,171.2 C189.810091,171.896631 188.52846,171.764049 187.8,170.9 L182.6,164.3 C181.926555,163.384374 182.103831,162.099127 183,161.4 Z" id="Shape" fill="#CCCCCC"></path>
                        <path d="M171.3,170.6 L177.1,166 C178.015626,165.326555 179.300873,165.503831 180,166.4 L185.1,173 C185.796631,173.889909 185.664049,175.17154 184.8,175.9 L179,180.4 C178.110091,181.096631 176.82846,180.964049 176.1,180.1 L170.9,173.5 C170.226555,172.584374 170.403831,171.299127 171.3,170.6 L171.3,170.6 Z" id="Shape" fill="#CCCCCC"></path>
                        <path d="M159.6,179.8 L165.4,175.2 C166.315626,174.526555 167.600873,174.703831 168.3,175.6 L173.4,182.2 C173.756885,182.600471 173.927859,183.13314 173.870712,183.666505 C173.813566,184.19987 173.533625,184.684227 173.1,185 L167.3,189.6 C166.384374,190.273445 165.099127,190.096169 164.4,189.2 L159.2,182.6 C158.537258,181.716344 158.716344,180.462742 159.6,179.8 Z" id="Shape" fill="#CCCCCC"></path>
                        <path d="M147.9,188.9 L153.7,184.4 C154.60369,183.75319 155.847853,183.881896 156.6,184.7 L161.7,191.3 C162.396631,192.189909 162.264049,193.47154 161.4,194.2 L155.6,198.8 C154.684374,199.473445 153.399127,199.296169 152.7,198.4 L147.5,191.8 C146.826555,190.884374 147.003831,189.599127 147.9,188.9 Z" id="Shape" fill="#CCCCCC"></path>
                        <path d="M136.2,198.1 L142,193.6 C142.889909,192.903369 144.17154,193.035951 144.9,193.9 L150,200.5 C150.696631,201.389909 150.564049,202.67154 149.7,203.4 L143.9,207.9 C143.010091,208.596631 141.72846,208.464049 141,207.6 L135.8,201 C135.126555,200.084374 135.303831,198.799127 136.2,198.1 Z" id="Shape" fill="#CCCCCC"></path>
                        <path d="M124.5,207.3 L130.3,202.8 C131.189909,202.103369 132.47154,202.235951 133.2,203.1 L138.3,209.7 C138.996631,210.589909 138.864049,211.87154 138,212.6 L132.2,217.1 C131.310091,217.796631 130.02846,217.664049 129.3,216.8 L124.1,210.2 C123.426555,209.284374 123.603831,207.999127 124.5,207.3 Z" id="Shape" fill="#CCCCCC"></path>
                        <path d="M112.8,216.5 L118.6,211.9 C119.515626,211.226555 120.800873,211.403831 121.5,212.3 L126.6,218.9 C127.296631,219.789909 127.164049,221.07154 126.3,221.8 L120.5,226.3 C119.59631,226.94681 118.352147,226.818104 117.6,226 L112.4,219.3 C111.737258,218.416344 111.916344,217.162742 112.8,216.5 Z" id="Shape" fill="#CCCCCC"></path>
                        <path d="M101.1,225.7 L106.9,221.1 C107.815626,220.426555 109.100873,220.603831 109.8,221.5 L114.9,228.1 C115.585365,228.957503 115.451473,230.207158 114.6,230.9 L108.8,235.5 C107.884374,236.173445 106.599127,235.996169 105.9,235.1 L100.7,228.5 C100.353334,228.086433 100.198884,227.544963 100.275201,227.010743 C100.351518,226.476523 100.651402,225.999958 101.1,225.7 Z" id="Shape" fill="#CCCCCC"></path>
                        <path d="M89,235.1 L94.9,230.5 C95.3303038,230.149183 95.8870704,229.993017 96.4370515,230.068877 C96.9870326,230.144736 97.4807338,230.445794 97.8,230.9 L103,237.4 C103.673445,238.315626 103.496169,239.600873 102.6,240.3 L96.7,245 C95.7843743,245.673445 94.4991272,245.496169 93.8,244.6 L88.6,238.1 C87.915037,237.152566 88.09073,235.834869 89,235.1 Z" id="Shape" fill="#CCCCCC"></path>
                        <path d="M98.2,246.6 L110.3,237 C110.763121,236.639289 111.351193,236.478622 111.933388,236.553744 C112.515582,236.628866 113.04361,236.933545 113.4,237.4 L118.4,243.7 C119.16204,244.697155 118.984046,246.121105 118,246.9 L105.9,256.4 C104.902845,257.16204 103.478895,256.984046 102.7,256 L97.8,249.7 C97.4108251,249.248169 97.2320965,248.652188 97.3084095,248.060763 C97.3847225,247.469337 97.7088799,246.938244 98.2,246.6 Z" id="Shape" fill="#CCCCCC"></path>
                        <path d="M107.2,258.1 L121.7,246.8 C122.150627,246.428113 122.730676,246.250752 123.312223,246.307031 C123.89377,246.36331 124.429045,246.648606 124.8,247.1 L129.7,253.5 C130.071887,253.950627 130.249248,254.530676 130.192969,255.112223 C130.13669,255.69377 129.851394,256.229045 129.4,256.6 L114.9,267.9 C114.449373,268.271887 113.869324,268.449248 113.287777,268.392969 C112.70623,268.33669 112.170955,268.051394 111.8,267.6 L106.8,261.2 C106.439289,260.736879 106.278622,260.148807 106.353744,259.566612 C106.428866,258.984418 106.733545,258.45639 107.2,258.1 L107.2,258.1 Z" id="Shape" fill="#CCCCCC"></path>
                        <path d="M116.2,269.6 L137,253.4 C137.451831,253.010825 138.047812,252.832097 138.639237,252.90841 C139.230663,252.984723 139.761756,253.30888 140.1,253.8 L145.1,260.1 C145.797162,261.079112 145.622864,262.429924 144.7,263.2 L124,279.5 C122.978411,280.164422 121.626605,279.995446 120.8,279.1 L115.9,272.8 C115.114484,271.828832 115.247665,270.408244 116.2,269.6 L116.2,269.6 Z" id="Shape" fill="#CCCCCC"></path>
                        <path d="M125.3,281.2 L133.9,274.4 C134.363121,274.039289 134.951193,273.878622 135.533388,273.953744 C136.115582,274.028866 136.64361,274.333545 137,274.8 L142,281.1 C142.360711,281.563121 142.521378,282.151193 142.446256,282.733388 C142.371134,283.315582 142.066455,283.84361 141.6,284.2 L133,291 C132.536879,291.360711 131.948807,291.521378 131.366612,291.446256 C130.784418,291.371134 130.25639,291.066455 129.9,290.6 L124.9,284.3 C124.539289,283.836879 124.378622,283.248807 124.453744,282.666612 C124.528866,282.084418 124.833545,281.55639 125.3,281.2 Z" id="Shape" fill="#CCCCCC"></path>
                        <path d="M115.3,233.2 L121.5,228.3 C121.934679,227.914426 122.515553,227.73695 123.091501,227.813743 C123.667449,227.890536 124.18153,228.214006 124.5,228.7 L129.5,235 C129.871887,235.450627 130.049248,236.030676 129.992969,236.612223 C129.93669,237.19377 129.651394,237.729045 129.2,238.1 L123,243 C122.536879,243.360711 121.948807,243.521378 121.366612,243.446256 C120.784418,243.371134 120.25639,243.066455 119.9,242.6 L114.9,236.2 C114.514426,235.765321 114.33695,235.184447 114.413743,234.608499 C114.490536,234.032551 114.814006,233.51847 115.3,233.2 Z" id="Shape" fill="#CCCCCC"></path>
                        <path d="M127.2,223.8 L133.4,218.9 C134.379112,218.202838 135.729924,218.377136 136.5,219.3 L141.5,225.7 C142.197162,226.679112 142.022864,228.029924 141.1,228.8 L134.9,233.6 C134.449373,233.971887 133.869324,234.149248 133.287777,234.092969 C132.70623,234.03669 132.170955,233.751394 131.8,233.3 L126.8,226.9 C126.439289,226.436879 126.278622,225.848807 126.353744,225.266612 C126.428866,224.684418 126.733545,224.15639 127.2,223.8 Z" id="Shape" fill="#CCCCCC"></path>
                        <path d="M139.1,214.5 L145.3,209.6 C145.751831,209.210825 146.347812,209.032097 146.939237,209.10841 C147.530663,209.184723 148.061756,209.50888 148.4,210 L153.4,216.3 C153.760711,216.763121 153.921378,217.351193 153.846256,217.933388 C153.771134,218.515582 153.466455,219.04361 153,219.4 L146.8,224.3 C146.336879,224.660711 145.748807,224.821378 145.166612,224.746256 C144.584418,224.671134 144.05639,224.366455 143.7,223.9 L138.7,217.5 C138.344468,217.053195 138.186206,216.480878 138.261671,215.914889 C138.337136,215.348901 138.639821,214.838044 139.1,214.5 Z" id="Shape" fill="#CCCCCC"></path>
                        <path d="M151,205.1 L157.2,200.2 C158.179112,199.502838 159.529924,199.677136 160.3,200.6 L165.3,207 C165.689175,207.451831 165.867903,208.047812 165.79159,208.639237 C165.715277,209.230663 165.39112,209.761756 164.9,210.1 L158.7,214.9 C158.249373,215.271887 157.669324,215.449248 157.087777,215.392969 C156.50623,215.33669 155.970955,215.051394 155.6,214.6 L150.6,208.2 C149.902838,207.220888 150.077136,205.870076 151,205.1 Z" id="Shape" fill="#CCCCCC"></path>
                        <path d="M162.9,195.8 L169.1,190.9 C169.551831,190.510825 170.147812,190.332097 170.739237,190.40841 C171.330663,190.484723 171.861756,190.80888 172.2,191.3 L177.2,197.6 C177.571887,198.050627 177.749248,198.630676 177.692969,199.212223 C177.63669,199.79377 177.351394,200.329045 176.9,200.7 L170.6,205.6 C170.153195,205.955532 169.580878,206.113794 169.014889,206.038329 C168.448901,205.962864 167.938044,205.660179 167.6,205.2 L162.6,198.8 C162.233567,198.365871 162.058657,197.801802 162.115185,197.236519 C162.171714,196.671235 162.454857,196.152972 162.9,195.8 Z" id="Shape" fill="#CCCCCC"></path>
                        <path d="M174.9,186.4 L181.1,181.5 C182.047434,180.815037 183.365131,180.99073 184.1,181.9 L189.1,188.3 C189.471887,188.750627 189.649248,189.330676 189.592969,189.912223 C189.53669,190.49377 189.251394,191.029045 188.8,191.4 L182.6,196.2 C182.149373,196.571887 181.569324,196.749248 180.987777,196.692969 C180.40623,196.63669 179.870955,196.351394 179.5,195.9 L174.5,189.5 C174.110825,189.048169 173.932097,188.452188 174.00841,187.860763 C174.084723,187.269337 174.40888,186.738244 174.9,186.4 Z" id="Shape" fill="#CCCCCC"></path>
                        <path d="M186.8,177.1 L193,172.2 C193.451831,171.810825 194.047812,171.632097 194.639237,171.70841 C195.230663,171.784723 195.761756,172.10888 196.1,172.6 L201.1,178.9 C201.797162,179.879112 201.622864,181.229924 200.7,182 L194.5,186.9 C194.036879,187.260711 193.448807,187.421378 192.866612,187.346256 C192.284418,187.271134 191.75639,186.966455 191.4,186.5 L186.4,180.1 C186.044468,179.653195 185.886206,179.080878 185.961671,178.514889 C186.037136,177.948901 186.339821,177.438044 186.8,177.1 L186.8,177.1 Z" id="Shape" fill="#CCCCCC"></path>
                        <path d="M198.7,167.7 L204.9,162.8 C205.879112,162.102838 207.229924,162.277136 208,163.2 L213,169.6 C213.360711,170.063121 213.521378,170.651193 213.446256,171.233388 C213.371134,171.815582 213.066455,172.34361 212.6,172.7 L206.4,177.5 C205.949373,177.871887 205.369324,178.049248 204.787777,177.992969 C204.20623,177.93669 203.670955,177.651394 203.3,177.2 L198.3,170.8 C197.939289,170.336879 197.778622,169.748807 197.853744,169.166612 C197.928866,168.584418 198.233545,168.05639 198.7,167.7 L198.7,167.7 Z" id="Shape" fill="#CCCCCC"></path>
                        <path d="M210.6,158.4 L216.8,153.5 C217.251831,153.110825 217.847812,152.932097 218.439237,153.00841 C219.030663,153.084723 219.561756,153.40888 219.9,153.9 L224.9,160.2 C225.260711,160.663121 225.421378,161.251193 225.346256,161.833388 C225.271134,162.415582 224.966455,162.94361 224.5,163.3 L218.3,168.2 C217.836879,168.560711 217.248807,168.721378 216.666612,168.646256 C216.084418,168.571134 215.55639,168.266455 215.2,167.8 L210.2,161.4 C209.515037,160.452566 209.69073,159.134869 210.6,158.4 Z" id="Shape" fill="#CCCCCC"></path>
                        <path d="M222.5,149 L228.7,144.1 C229.679112,143.402838 231.029924,143.577136 231.8,144.5 L236.8,150.9 C237.189175,151.351831 237.367903,151.947812 237.29159,152.539237 C237.215277,153.130663 236.89112,153.661756 236.4,154 L230.2,158.8 C229.765871,159.166433 229.201802,159.341343 228.636519,159.284815 C228.071235,159.228286 227.552972,158.945143 227.2,158.5 L222.2,152.1 C221.828113,151.649373 221.650752,151.069324 221.707031,150.487777 C221.76331,149.90623 222.048606,149.370955 222.5,149 L222.5,149 Z" id="Shape" fill="#CCCCCC"></path>
                        <path d="M234.4,139.7 L240.7,134.8 C241.134679,134.414426 241.715553,134.23695 242.291501,134.313743 C242.867449,134.390536 243.38153,134.714006 243.7,135.2 L248.7,141.5 C249.071887,141.950627 249.249248,142.530676 249.192969,143.112223 C249.13669,143.69377 248.851394,144.229045 248.4,144.6 L242.2,149.5 C241.736879,149.860711 241.148807,150.021378 240.566612,149.946256 C239.984418,149.871134 239.45639,149.566455 239.1,149.1 L234.1,142.7 C233.733567,142.265871 233.558657,141.701802 233.615185,141.136519 C233.671714,140.571235 233.954857,140.052972 234.4,139.7 Z" id="Shape" fill="#CCCCCC"></path>
                        <path d="M246.4,130.3 L252.6,125.4 C253.579112,124.702838 254.929924,124.877136 255.7,125.8 L260.7,132.2 C261.397162,133.179112 261.222864,134.529924 260.3,135.3 L254.1,140.1 C253.649373,140.471887 253.069324,140.649248 252.487777,140.592969 C251.90623,140.53669 251.370955,140.251394 251,139.8 L246,133.4 C245.639289,132.936879 245.478622,132.348807 245.553744,131.766612 C245.628866,131.184418 245.933545,130.65639 246.4,130.3 L246.4,130.3 Z" id="Shape" fill="#CCCCCC"></path>
                        <path d="M127.6,242.1 L133.8,237.2 C134.263121,236.839289 134.851193,236.678622 135.433388,236.753744 C136.015582,236.828866 136.54361,237.133545 136.9,237.6 L141.9,244 C142.285574,244.434679 142.46305,245.015553 142.386257,245.591501 C142.309464,246.167449 141.985994,246.68153 141.5,247 L135.3,251.9 C134.848169,252.289175 134.252188,252.467903 133.660763,252.39159 C133.069337,252.315277 132.538244,251.99112 132.2,251.5 L127.2,245.2 C126.502838,244.220888 126.677136,242.870076 127.6,242.1 Z" id="Shape" fill="#CCCCCC"></path>
                        <path d="M139.5,232.7 L145.7,227.9 C146.150627,227.528113 146.730676,227.350752 147.312223,227.407031 C147.89377,227.46331 148.429045,227.748606 148.8,228.2 L153.8,234.6 C154.171887,235.050627 154.349248,235.630676 154.292969,236.212223 C154.23669,236.79377 153.951394,237.329045 153.5,237.7 L147.2,242.6 C146.252566,243.284963 144.934869,243.10927 144.2,242.2 L139.2,235.8 C138.828113,235.349373 138.650752,234.769324 138.707031,234.187777 C138.76331,233.60623 139.048606,233.070955 139.5,232.7 Z" id="Shape" fill="#CCCCCC"></path>
                        <path d="M151.5,223.4 L157.7,218.5 C158.146805,218.144468 158.719122,217.986206 159.285111,218.061671 C159.851099,218.137136 160.361956,218.439821 160.7,218.9 L165.7,225.3 C166.066433,225.734129 166.241343,226.298198 166.184815,226.863481 C166.128286,227.428765 165.845143,227.947028 165.4,228.3 L159.2,233.2 C158.748169,233.589175 158.152188,233.767903 157.560763,233.69159 C156.969337,233.615277 156.438244,233.29112 156.1,232.8 L151.1,226.5 C150.710825,226.048169 150.532097,225.452188 150.60841,224.860763 C150.684723,224.269337 151.00888,223.738244 151.5,223.4 Z" id="Shape" fill="#CCCCCC"></path>
                        <path d="M163.4,214 L169.6,209.2 C170.050627,208.828113 170.630676,208.650752 171.212223,208.707031 C171.79377,208.76331 172.329045,209.048606 172.7,209.5 L177.7,215.9 C178.397162,216.879112 178.222864,218.229924 177.3,219 L171.1,223.9 C170.120888,224.597162 168.770076,224.422864 168,223.5 L163,217.1 C162.639289,216.636879 162.478622,216.048807 162.553744,215.466612 C162.628866,214.884418 162.933545,214.35639 163.4,214 Z" id="Shape" fill="#CCCCCC"></path>
                        <path d="M175.3,204.7 L181.5,199.8 C181.963121,199.439289 182.551193,199.278622 183.133388,199.353744 C183.715582,199.428866 184.24361,199.733545 184.6,200.2 L189.6,206.6 C189.955532,207.046805 190.113794,207.619122 190.038329,208.185111 C189.962864,208.751099 189.660179,209.261956 189.2,209.6 L183,214.5 C182.548169,214.889175 181.952188,215.067903 181.360763,214.99159 C180.769337,214.915277 180.238244,214.59112 179.9,214.1 L174.9,207.8 C174.539289,207.336879 174.378622,206.748807 174.453744,206.166612 C174.528866,205.584418 174.833545,205.05639 175.3,204.7 Z" id="Shape" fill="#CCCCCC"></path>
                        <path d="M187.2,195.3 L193.4,190.5 C193.850627,190.128113 194.430676,189.950752 195.012223,190.007031 C195.59377,190.06331 196.129045,190.348606 196.5,190.8 L201.5,197.2 C201.860711,197.663121 202.021378,198.251193 201.946256,198.833388 C201.871134,199.415582 201.566455,199.94361 201.1,200.3 L194.9,205.2 C193.920888,205.897162 192.570076,205.722864 191.8,204.8 L186.8,198.4 C186.102838,197.420888 186.277136,196.070076 187.2,195.3 L187.2,195.3 Z" id="Shape" fill="#CCCCCC"></path>
                        <path d="M199.1,186 L205.3,181.1 C205.763121,180.739289 206.351193,180.578622 206.933388,180.653744 C207.515582,180.728866 208.04361,181.033545 208.4,181.5 L213.4,187.9 C213.766433,188.334129 213.941343,188.898198 213.884815,189.463481 C213.828286,190.028765 213.545143,190.547028 213.1,190.9 L206.8,195.8 C206.365321,196.185574 205.784447,196.36305 205.208499,196.286257 C204.632551,196.209464 204.11847,195.885994 203.8,195.4 L198.8,189.1 C198.428113,188.649373 198.250752,188.069324 198.307031,187.487777 C198.36331,186.90623 198.648606,186.370955 199.1,186 L199.1,186 Z" id="Shape" fill="#CCCCCC"></path>
                        <path d="M211.1,176.6 L217.3,171.8 C217.734129,171.433567 218.298198,171.258657 218.863481,171.315185 C219.428765,171.371714 219.947028,171.654857 220.3,172.1 L225.3,178.5 C225.671887,178.950627 225.849248,179.530676 225.792969,180.112223 C225.73669,180.69377 225.451394,181.229045 225,181.6 L218.8,186.5 C217.820888,187.197162 216.470076,187.022864 215.7,186.1 L210.7,179.7 C210.310825,179.248169 210.132097,178.652188 210.20841,178.060763 C210.284723,177.469337 210.60888,176.938244 211.1,176.6 L211.1,176.6 Z" id="Shape" fill="#CCCCCC"></path>
                        <path d="M223,167.3 L229.2,162.4 C229.663121,162.039289 230.251193,161.878622 230.833388,161.953744 C231.415582,162.028866 231.94361,162.333545 232.3,162.8 L237.3,169.2 C237.984963,170.147434 237.80927,171.465131 236.9,172.2 L230.7,177.1 C230.248169,177.489175 229.652188,177.667903 229.060763,177.59159 C228.469337,177.515277 227.938244,177.19112 227.6,176.7 L222.6,170.4 C222.239289,169.936879 222.078622,169.348807 222.153744,168.766612 C222.228866,168.184418 222.533545,167.65639 223,167.3 L223,167.3 Z" id="Shape" fill="#CCCCCC"></path>
                        <path d="M234.9,157.9 L241.1,153.1 C241.550627,152.728113 242.130676,152.550752 242.712223,152.607031 C243.29377,152.66331 243.829045,152.948606 244.2,153.4 L249.2,159.8 C249.560711,160.263121 249.721378,160.851193 249.646256,161.433388 C249.571134,162.015582 249.266455,162.54361 248.8,162.9 L242.6,167.8 C241.620888,168.497162 240.270076,168.322864 239.5,167.4 L234.5,161 C234.139289,160.536879 233.978622,159.948807 234.053744,159.366612 C234.128866,158.784418 234.433545,158.25639 234.9,157.9 L234.9,157.9 Z" id="Shape" fill="#CCCCCC"></path>
                        <path d="M246.8,148.6 L253,143.7 C253.463121,143.339289 254.051193,143.178622 254.633388,143.253744 C255.215582,143.328866 255.74361,143.633545 256.1,144.1 L261.1,150.5 C261.455532,150.946805 261.613794,151.519122 261.538329,152.085111 C261.462864,152.651099 261.160179,153.161956 260.7,153.5 L254.5,158.4 C254.048169,158.789175 253.452188,158.967903 252.860763,158.89159 C252.269337,158.815277 251.738244,158.49112 251.4,158 L246.4,151.7 C245.702838,150.720888 245.877136,149.370076 246.8,148.6 L246.8,148.6 Z" id="Shape" fill="#CCCCCC"></path>
                        <path d="M142.9,248.7 L149.1,243.9 C149.550627,243.528113 150.130676,243.350752 150.712223,243.407031 C151.29377,243.46331 151.829045,243.748606 152.2,244.2 L157.2,250.6 C157.560711,251.063121 157.721378,251.651193 157.646256,252.233388 C157.571134,252.815582 157.266455,253.34361 156.8,253.7 L150.6,258.5 C150.149373,258.871887 149.569324,259.049248 148.987777,258.992969 C148.40623,258.93669 147.870955,258.651394 147.5,258.2 L142.5,251.8 C141.802838,250.820888 141.977136,249.470076 142.9,248.7 Z" id="Shape" fill="#CCCCCC"></path>
                        <path d="M154.8,239.4 L161,234.5 C161.463121,234.139289 162.051193,233.978622 162.633388,234.053744 C163.215582,234.128866 163.74361,234.433545 164.1,234.9 L169.1,241.3 C169.485574,241.734679 169.66305,242.315553 169.586257,242.891501 C169.509464,243.467449 169.185994,243.98153 168.7,244.3 L162.5,249.2 C162.053195,249.555532 161.480878,249.713794 160.914889,249.638329 C160.348901,249.562864 159.838044,249.260179 159.5,248.8 L154.4,242.4 C153.715037,241.452566 153.89073,240.134869 154.8,239.4 Z" id="Shape" fill="#CCCCCC"></path>
                        <path d="M166.7,230 L172.9,225.2 C173.350627,224.828113 173.930676,224.650752 174.512223,224.707031 C175.09377,224.76331 175.629045,225.048606 176,225.5 L181,231.9 C181.371887,232.350627 181.549248,232.930676 181.492969,233.512223 C181.43669,234.09377 181.151394,234.629045 180.7,235 L174.5,239.9 C173.520888,240.597162 172.170076,240.422864 171.4,239.5 L166.4,233.1 C166.028113,232.649373 165.850752,232.069324 165.907031,231.487777 C165.96331,230.90623 166.248606,230.370955 166.7,230 Z" id="Shape" fill="#CCCCCC"></path>
                        <path d="M178.7,220.7 L184.9,215.8 C185.346805,215.444468 185.919122,215.286206 186.485111,215.361671 C187.051099,215.437136 187.561956,215.739821 187.9,216.2 L192.9,222.6 C193.266433,223.034129 193.441343,223.598198 193.384815,224.163481 C193.328286,224.728765 193.045143,225.247028 192.6,225.6 L186.4,230.5 C185.936879,230.860711 185.348807,231.021378 184.766612,230.946256 C184.184418,230.871134 183.65639,230.566455 183.3,230.1 L178.3,223.7 C177.914426,223.265321 177.73695,222.684447 177.813743,222.108499 C177.890536,221.532551 178.214006,221.01847 178.7,220.7 L178.7,220.7 Z" id="Shape" fill="#CCCCCC"></path>
                        <path d="M190.6,211.3 L196.8,206.5 C197.250627,206.128113 197.830676,205.950752 198.412223,206.007031 C198.99377,206.06331 199.529045,206.348606 199.9,206.8 L204.9,213.2 C205.597162,214.179112 205.422864,215.529924 204.5,216.3 L198.3,221.2 C197.320888,221.897162 195.970076,221.722864 195.2,220.8 L190.2,214.4 C189.839289,213.936879 189.678622,213.348807 189.753744,212.766612 C189.828866,212.184418 190.133545,211.65639 190.6,211.3 L190.6,211.3 Z" id="Shape" fill="#CCCCCC"></path>
                        <path d="M202.5,202 L208.7,197.1 C209.163121,196.739289 209.751193,196.578622 210.333388,196.653744 C210.915582,196.728866 211.44361,197.033545 211.8,197.5 L216.8,203.9 C217.155532,204.346805 217.313794,204.919122 217.238329,205.485111 C217.162864,206.051099 216.860179,206.561956 216.4,206.9 L210.2,211.8 C209.736879,212.160711 209.148807,212.321378 208.566612,212.246256 C207.984418,212.171134 207.45639,211.866455 207.1,211.4 L202.1,205.1 C201.739289,204.636879 201.578622,204.048807 201.653744,203.466612 C201.728866,202.884418 202.033545,202.35639 202.5,202 L202.5,202 Z" id="Shape" fill="#CCCCCC"></path>
                        <path d="M214.4,192.6 L220.6,187.8 C221.050627,187.428113 221.630676,187.250752 222.212223,187.307031 C222.79377,187.36331 223.329045,187.648606 223.7,188.1 L228.7,194.5 C229.089175,194.951831 229.267903,195.547812 229.19159,196.139237 C229.115277,196.730663 228.79112,197.261756 228.3,197.6 L222.1,202.5 C221.120888,203.197162 219.770076,203.022864 219,202.1 L214,195.7 C213.302838,194.720888 213.477136,193.370076 214.4,192.6 L214.4,192.6 Z" id="Shape" fill="#CCCCCC"></path>
                        <path d="M226.3,183.3 L232.5,178.4 C232.963121,178.039289 233.551193,177.878622 234.133388,177.953744 C234.715582,178.028866 235.24361,178.333545 235.6,178.8 L240.6,185.2 C240.966433,185.634129 241.141343,186.198198 241.084815,186.763481 C241.028286,187.328765 240.745143,187.847028 240.3,188.2 L234,193.1 C233.553195,193.455532 232.980878,193.613794 232.414889,193.538329 C231.848901,193.462864 231.338044,193.160179 231,192.7 L226,186.3 C225.633567,185.865871 225.458657,185.301802 225.515185,184.736519 C225.571714,184.171235 225.854857,183.652972 226.3,183.3 L226.3,183.3 Z" id="Shape" fill="#CCCCCC"></path>
                        <path d="M238.3,173.9 L244.5,169.1 C244.934129,168.733567 245.498198,168.558657 246.063481,168.615185 C246.628765,168.671714 247.147028,168.954857 247.5,169.4 L252.5,175.8 C252.871887,176.250627 253.049248,176.830676 252.992969,177.412223 C252.93669,177.99377 252.651394,178.529045 252.2,178.9 L246,183.8 C245.020888,184.497162 243.670076,184.322864 242.9,183.4 L237.9,177 C237.510825,176.548169 237.332097,175.952188 237.40841,175.360763 C237.484723,174.769337 237.80888,174.238244 238.3,173.9 L238.3,173.9 Z" id="Shape" fill="#CCCCCC"></path>
                        <path d="M250.2,164.6 L256.4,159.7 C256.863121,159.339289 257.451193,159.178622 258.033388,159.253744 C258.615582,159.328866 259.14361,159.633545 259.5,160.1 L264.5,166.5 C265.184963,167.447434 265.00927,168.765131 264.1,169.5 L257.9,174.4 C257.436879,174.760711 256.848807,174.921378 256.266612,174.846256 C255.684418,174.771134 255.15639,174.466455 254.8,174 L249.8,167.7 C249.439289,167.236879 249.278622,166.648807 249.353744,166.066612 C249.428866,165.484418 249.733545,164.95639 250.2,164.6 L250.2,164.6 Z" id="Shape" fill="#CCCCCC"></path>
                        <path d="M262.1,155.2 L273.3,146.4 C274.297155,145.63796 275.721105,145.815954 276.5,146.8 L281.4,153.1 C281.771887,153.550627 281.949248,154.130676 281.892969,154.712223 C281.83669,155.29377 281.551394,155.829045 281.1,156.2 L269.8,165 C269.348169,165.389175 268.752188,165.567903 268.160763,165.49159 C267.569337,165.415277 267.038244,165.09112 266.7,164.6 L261.7,158.3 C261.002838,157.320888 261.177136,155.970076 262.1,155.2 L262.1,155.2 Z" id="Shape" fill="#CCCCCC"></path>
                        <path d="M139.8,269.8 L146,264.9 C146.451831,264.510825 147.047812,264.332097 147.639237,264.40841 C148.230663,264.484723 148.761756,264.80888 149.1,265.3 L154.1,271.6 C154.489175,272.051831 154.667903,272.647812 154.59159,273.239237 C154.515277,273.830663 154.19112,274.361756 153.7,274.7 L147.5,279.6 C147.053195,279.955532 146.480878,280.113794 145.914889,280.038329 C145.348901,279.962864 144.838044,279.660179 144.5,279.2 L139.5,272.8 C139.133567,272.365871 138.958657,271.801802 139.015185,271.236519 C139.071714,270.671235 139.354857,270.152972 139.8,269.8 Z" id="Shape" fill="#CCCCCC"></path>
                        <path d="M151.8,260.4 L158,255.5 C158.947434,254.815037 160.265131,254.99073 161,255.9 L166,262.3 C166.371887,262.750627 166.549248,263.330676 166.492969,263.912223 C166.43669,264.49377 166.151394,265.029045 165.7,265.4 L159.5,270.2 C159.049373,270.571887 158.469324,270.749248 157.887777,270.692969 C157.30623,270.63669 156.770955,270.351394 156.4,269.9 L151.4,263.5 C151.010825,263.048169 150.832097,262.452188 150.90841,261.860763 C150.984723,261.269337 151.30888,260.738244 151.8,260.4 Z" id="Shape" fill="#CCCCCC"></path>
                        <path d="M163.7,251.1 L169.9,246.2 C170.351831,245.810825 170.947812,245.632097 171.539237,245.70841 C172.130663,245.784723 172.661756,246.10888 173,246.6 L178,252.9 C178.697162,253.879112 178.522864,255.229924 177.6,256 L171.4,260.9 C170.936879,261.260711 170.348807,261.421378 169.766612,261.346256 C169.184418,261.271134 168.65639,260.966455 168.3,260.5 L163.3,254.1 C162.944468,253.653195 162.786206,253.080878 162.861671,252.514889 C162.937136,251.948901 163.239821,251.438044 163.7,251.1 Z" id="Shape" fill="#CCCCCC"></path>
                        <path d="M175.6,241.7 L181.8,236.8 C182.779112,236.102838 184.129924,236.277136 184.9,237.2 L189.9,243.6 C190.260711,244.063121 190.421378,244.651193 190.346256,245.233388 C190.271134,245.815582 189.966455,246.34361 189.5,246.7 L183.3,251.5 C182.849373,251.871887 182.269324,252.049248 181.687777,251.992969 C181.10623,251.93669 180.570955,251.651394 180.2,251.2 L175.2,244.8 C174.839289,244.336879 174.678622,243.748807 174.753744,243.166612 C174.828866,242.584418 175.133545,242.05639 175.6,241.7 L175.6,241.7 Z" id="Shape" fill="#CCCCCC"></path>
                        <path d="M187.5,232.4 L193.7,227.5 C194.151831,227.110825 194.747812,226.932097 195.339237,227.00841 C195.930663,227.084723 196.461756,227.40888 196.8,227.9 L201.8,234.2 C202.160711,234.663121 202.321378,235.251193 202.246256,235.833388 C202.171134,236.415582 201.866455,236.94361 201.4,237.3 L195.2,242.2 C194.736879,242.560711 194.148807,242.721378 193.566612,242.646256 C192.984418,242.571134 192.45639,242.266455 192.1,241.8 L187.1,235.4 C186.415037,234.452566 186.59073,233.134869 187.5,232.4 L187.5,232.4 Z" id="Shape" fill="#CCCCCC"></path>
                        <path d="M199.4,223 L205.6,218.1 C206.579112,217.402838 207.929924,217.577136 208.7,218.5 L213.7,224.9 C214.089175,225.351831 214.267903,225.947812 214.19159,226.539237 C214.115277,227.130663 213.79112,227.661756 213.3,228 L207.1,232.8 C206.665871,233.166433 206.101802,233.341343 205.536519,233.284815 C204.971235,233.228286 204.452972,232.945143 204.1,232.5 L199.1,226.1 C198.728113,225.649373 198.550752,225.069324 198.607031,224.487777 C198.66331,223.90623 198.948606,223.370955 199.4,223 Z" id="Shape" fill="#CCCCCC"></path>
                        <path d="M211.3,213.7 L217.6,208.8 C218.034679,208.414426 218.615553,208.23695 219.191501,208.313743 C219.767449,208.390536 220.28153,208.714006 220.6,209.2 L225.6,215.5 C225.971887,215.950627 226.149248,216.530676 226.092969,217.112223 C226.03669,217.69377 225.751394,218.229045 225.3,218.6 L219.1,223.5 C218.636879,223.860711 218.048807,224.021378 217.466612,223.946256 C216.884418,223.871134 216.35639,223.566455 216,223.1 L211,216.7 C210.633567,216.265871 210.458657,215.701802 210.515185,215.136519 C210.571714,214.571235 210.854857,214.052972 211.3,213.7 L211.3,213.7 Z" id="Shape" fill="#CCCCCC"></path>
                        <path d="M223.3,204.3 L229.5,199.4 C230.479112,198.702838 231.829924,198.877136 232.6,199.8 L237.6,206.2 C238.297162,207.179112 238.122864,208.529924 237.2,209.3 L231,214.1 C230.549373,214.471887 229.969324,214.649248 229.387777,214.592969 C228.80623,214.53669 228.270955,214.251394 227.9,213.8 L222.9,207.4 C222.510825,206.948169 222.332097,206.352188 222.40841,205.760763 C222.484723,205.169337 222.80888,204.638244 223.3,204.3 L223.3,204.3 Z" id="Shape" fill="#CCCCCC"></path>
                        <path d="M235.2,195 L241.4,190.1 C241.851831,189.710825 242.447812,189.532097 243.039237,189.60841 C243.630663,189.684723 244.161756,190.00888 244.5,190.5 L249.5,196.8 C249.860711,197.263121 250.021378,197.851193 249.946256,198.433388 C249.871134,199.015582 249.566455,199.54361 249.1,199.9 L242.9,204.8 C242.436879,205.160711 241.848807,205.321378 241.266612,205.246256 C240.684418,205.171134 240.15639,204.866455 239.8,204.4 L234.8,198 C234.444468,197.553195 234.286206,196.980878 234.361671,196.414889 C234.437136,195.848901 234.739821,195.338044 235.2,195 Z" id="Shape" fill="#CCCCCC"></path>
                        <path d="M247.1,185.6 L253.3,180.7 C254.279112,180.002838 255.629924,180.177136 256.4,181.1 L261.4,187.5 C261.760711,187.963121 261.921378,188.551193 261.846256,189.133388 C261.771134,189.715582 261.466455,190.24361 261,190.6 L254.8,195.4 C254.349373,195.771887 253.769324,195.949248 253.187777,195.892969 C252.60623,195.83669 252.070955,195.551394 251.7,195.1 L246.7,188.7 C246.002838,187.720888 246.177136,186.370076 247.1,185.6 L247.1,185.6 Z" id="Shape" fill="#CCCCCC"></path>
                        <path d="M259.1,176.2 L270.3,167.4 C270.763121,167.039289 271.351193,166.878622 271.933388,166.953744 C272.515582,167.028866 273.04361,167.333545 273.4,167.8 L278.4,174.1 C279.16204,175.097155 278.984046,176.521105 278,177.3 L266.8,186.1 C265.778411,186.764422 264.426605,186.595446 263.6,185.7 L258.7,179.4 C257.93796,178.402845 258.115954,176.978895 259.1,176.2 L259.1,176.2 Z" id="Shape" fill="#CCCCCC"></path>
                        <path d="M276.6,162.5 L282.5,157.8 C283.415626,157.126555 284.700873,157.303831 285.4,158.2 L290.6,164.7 C291.284963,165.647434 291.10927,166.965131 290.2,167.7 L284.3,172.3 C283.384374,172.973445 282.099127,172.796169 281.4,171.9 L276.2,165.4 C275.526555,164.484374 275.703831,163.199127 276.6,162.5 L276.6,162.5 Z" id="Shape" fill="#CCCCCC"></path>
                        <path d="M197.6,253.6 L259.6,205.1 C260.034129,204.733567 260.598198,204.558657 261.163481,204.615185 C261.728765,204.671714 262.247028,204.954857 262.6,205.4 L286,235.2 C286.360711,235.663121 286.521378,236.251193 286.446256,236.833388 C286.371134,237.415582 286.066455,237.94361 285.6,238.3 L223.7,286.9 C222.720888,287.597162 221.370076,287.422864 220.6,286.5 L197.3,256.7 C196.928113,256.249373 196.750752,255.669324 196.807031,255.087777 C196.86331,254.50623 197.148606,253.970955 197.6,253.6 Z" id="Shape" fill="#CCCCCC"></path>
                        <path d="M224.1,290.1 L254.9,266 C254.989588,265.924741 255.107635,265.89248 255.223047,265.911715 C255.338459,265.93095 255.439663,265.999753 255.5,266.1 L260.4,272.2 C260.522306,272.430275 260.481891,272.713181 260.3,272.9 L229.5,297 C229.3,297.2 229,297.2 228.9,297 L224,290.8 C223.834315,290.579086 223.879086,290.265685 224.1,290.1 L224.1,290.1 Z" id="Shape" fill="#CCCCCC"></path>
                        <path d="M257.9,263.6 L288.7,239.4 C288.930275,239.277694 289.213181,239.318109 289.4,239.5 L294.2,245.7 C294.333333,245.877778 294.333333,246.122222 294.2,246.3 L263.3,270.5 C263.100392,270.606145 262.854393,270.565145 262.7,270.4 L257.9,264.2 C257.7,264 257.7,263.7 257.9,263.6 Z" id="Shape" fill="#CCCCCC"></path>
                    </g>
                    <g id="laptop-left-hand" transform="translate(435.000000, 511.000000)" fill-rule="nonzero">
                        <rect id="Rectangle-path" fill="#FCD6AE" transform="translate(71.371687, 154.733840) rotate(-15.300000) translate(-71.371687, -154.733840) " x="47.6216873" y="121.58384" width="47.5" height="66.3"></rect>
                        <path d="M76.6,70.9 C78,76.4 79.8,82.9 81.9,90.7 L90.8,62.8 C94.5,51 105.3,53.2 110.3,56.7 L95.1,120.5 C93,129.4 81.4,136.8 69.3,140.4 C44.2,148.1 24.3,135.8 14.4,101.4 L1.5,76.3 C-3.9,65.7 11.2,58.3 16.5,69 L21.7,79.6 C22.0573899,78.8025903 22.5290057,78.0614796 23.1,77.4 L15,55.6 C10.7,44.4 26.8,39.9 30.4,49.3 L37.5,67.3 C37.9,67 38.9,66.8 39.2,66.6 L32.2,43.1 C29,32.6 45.1,27.9 48.2,38.4 L56.3,65.7 L58.8,66.3 L48.2,10.3 C46.2,-0.4 62.5,-3.8 64.6,7.3 L76.6,70.9 Z" id="Shape" fill="#FCD6AE"></path>
                        <rect id="Rectangle-path" fill="#45BDAA" transform="translate(92.472382, 229.353858) rotate(-15.900000) translate(-92.472382, -229.353858) " x="65.5223818" y="151.848858" width="53.9" height="155.01" rx="26.9"></rect>
                    </g>
                    <g id="laptop-right-hand" transform="translate(668.000000, 484.000000)" fill-rule="nonzero">
                        <rect id="Rectangle-path" fill="#FCD6AE" transform="translate(121.261000, 100.754000) rotate(-57.264774) translate(-121.261000, -100.754000) " x="101.738389" y="73.4922468" width="39.0452216" height="54.5235064"></rect>
                        <path d="M51.1,76.3 C55.1,78.7 59.8,81.8 65.4,85.3 L42.4,85.8 C32.2,86 30.4,95.2 32.5,99.7 L85.7,102.9 C93.2,103.3 101.8,96 107.6,87.4 C119.7,69.5 114.9,50.9 90.1,34.7 L57.1,3 C50.1,-3.8 40.6,6.3 47.8,13.1 L71.2,35.2 L69.2,35.8 L35.5,9.5 C27.7,3.4 20.3,14.9 26.8,20.1 L57.7,44.6 C57.36649,45.0091492 57.0655681,45.4438141 56.8,45.9 L19.1,20.8 C11.5,15.8 4,27.3 11.5,32.3 L51.9,59.1 C51.8169275,59.7967444 51.7835099,60.4985145 51.8,61.2 L10.3,39.3 C2.4,35.1 -4.3,47.1 3.9,51.5 L51.1,76.3 Z" id="Shape" fill="#FCD6AE"></path>
                        <path d="M119,93.8 L119,93.8 C123.173395,87.2049787 129.797807,82.5399889 137.413439,80.833037 C145.029071,79.126085 153.0109,80.5172621 159.6,84.7 L203,112.1 C216.710978,120.901706 220.771287,139.106171 212.1,152.9 L212.1,152.9 C203.336332,166.598337 185.163074,170.661645 171.4,162 L128.1,134.5 C121.477094,130.325885 116.792438,123.682742 115.084252,116.042833 C113.376066,108.402924 114.78543,100.397236 119,93.8 L119,93.8 Z" id="Shape" fill="#45BDAA"></path>
                    </g>
                    <g id="microprocessor" transform="translate(759.000000, 173.000000)" fill-rule="nonzero">
                        <rect id="Rectangle-path" fill="#333333" transform="translate(34.043439, 48.706807) rotate(120.200000) translate(-34.043439, -48.706807) " x="31.9934392" y="36.191807" width="4.1" height="25.03"></rect>
                        <rect id="Rectangle-path" fill="#CCCCCC" transform="translate(20.358496, 51.608938) rotate(120.200000) translate(-20.358496, -51.608938) " x="15.1584963" y="49.5839385" width="10.4" height="4.05"></rect>
                        <rect id="Rectangle-path" fill="#333333" transform="translate(33.025944, 50.599370) rotate(120.200000) translate(-33.025944, -50.599370) " x="30.8759439" y="42.2093698" width="4.3" height="16.78"></rect>
                        <rect id="Rectangle-path" fill="#333333" transform="translate(71.464652, 19.926658) rotate(120.200000) translate(-71.464652, -19.926658) " x="69.2646524" y="8.31665845" width="4.4" height="23.22"></rect>
                        <rect id="Rectangle-path" fill="#405359" transform="translate(49.334742, 55.059954) rotate(-59.800000) translate(-49.334742, -55.059954) " x="3.48474235" y="24.7799536" width="91.7" height="60.56" rx="2.6"></rect>
                        <g id="Group" transform="translate(89.000000, 28.000000)">
                            <circle id="Oval" fill="#DDDE41" cx="4.5" cy="4.5" r="4.1"></circle>
                            <circle id="Oval" fill="#EDFCFF" cx="4.5" cy="4.5" r="2.4"></circle>
                        </g>
                        <rect id="Rectangle-path" fill="#CCCCCC" transform="translate(78.278223, 60.043749) rotate(120.200000) translate(-78.278223, -60.043749) " x="51.0282233" y="57.6687487" width="54.5" height="4.75"></rect>
                        <g id="Group" transform="translate(57.000000, 82.000000)">
                            <circle id="Oval" fill="#DDDE41" cx="5" cy="4.5" r="4.1"></circle>
                            <circle id="Oval" fill="#EDFCFF" cx="5" cy="4.5" r="2.4"></circle>
                        </g>
                        <rect id="Rectangle-path" fill="#333333" transform="translate(72.744708, 17.434371) rotate(120.200000) translate(-72.744708, -17.434371) " x="71.294708" y="10.1643706" width="2.9" height="14.54"></rect>
                        <rect id="Rectangle-path" fill="#CCCCCC" transform="translate(70.773490, 20.789069) rotate(120.200000) translate(-70.773490, -20.789069) " x="69.67349" y="13.5190689" width="2.2" height="14.54"></rect>
                        <rect id="Rectangle-path" fill="#333333" transform="translate(61.611437, 43.168640) rotate(120.200000) translate(-61.611437, -43.168640) " x="53.3614372" y="34.7086399" width="16.5" height="16.92"></rect>
                        <rect id="Rectangle-path" fill="#333333" transform="translate(46.100142, 76.180268) rotate(120.200000) translate(-46.100142, -76.180268) " x="40.950142" y="70.9352675" width="10.3" height="10.49"></rect>
                        <rect id="Rectangle-path" fill="#333333" transform="translate(22.093884, 52.622433) rotate(120.200000) translate(-22.093884, -52.622433) " x="18.9438842" y="44.2324326" width="6.3" height="16.78"></rect>
                        <rect id="Rectangle-path" fill="#CCCCCC" transform="translate(42.860837, 12.822597) rotate(120.200000) translate(-42.860837, -12.822597) " x="38.5608373" y="8.69759743" width="8.6" height="8.25"></rect>
                        <rect id="Rectangle-path" fill="#CCCCCC" transform="translate(34.655003, 33.216090) rotate(120.200000) translate(-34.655003, -33.216090) " x="25.1550033" y="25.8760898" width="19" height="14.68"></rect>
                        <rect id="Rectangle-path" fill="#CCCCCC" transform="translate(19.026800, 71.942000) rotate(120.173520) translate(-19.026800, -71.942000) " x="7.53701697" y="62.6208513" width="22.9795661" height="18.6422973"></rect>
                        <rect id="Rectangle-path" fill="#CCCCCC" transform="translate(30.999840, 89.171399) rotate(120.200000) translate(-30.999840, -89.171399) " x="21.4998404" y="81.9013989" width="19" height="14.54"></rect>
                        <rect id="Rectangle-path" fill="#CCCCCC" transform="translate(48.314405, 99.268917) rotate(120.200000) translate(-48.314405, -99.268917) " x="38.8144049" y="90.8789166" width="19" height="16.78"></rect>
                        <g id="Group" transform="translate(12.000000, 56.000000)">
                            <circle id="Oval" fill="#DDDE41" cx="4.9" cy="4.3" r="4.1"></circle>
                            <circle id="Oval" fill="#EDFCFF" cx="4.9" cy="4.3" r="2.4"></circle>
                        </g>
                        <g id="Group" transform="translate(44.000000, 2.000000)">
                            <circle id="Oval" fill="#DDDE41" cx="4.3" cy="4.4" r="4.1"></circle>
                            <circle id="Oval" fill="#EDFCFF" cx="4.3" cy="4.4" r="2.4"></circle>
                        </g>
                        <rect id="Rectangle-path" fill="#CCCCCC" transform="translate(34.679805, 47.797150) rotate(120.200000) translate(-34.679805, -47.797150) " x="33.679805" y="39.4071496" width="2" height="16.78"></rect>
                    </g>
                    <g id="breadboard" transform="translate(679.000000, 96.000000)" fill-rule="nonzero">
                        <rect id="Rectangle-path" fill="#FFFFFF" transform="translate(67.843736, 61.503250) rotate(-35.100000) translate(-67.843736, -61.503250) " x="7.54373564" y="29.60325" width="120.6" height="63.8" rx="7.6"></rect>
                        <g id="Group" transform="translate(36.000000, 48.000000)" fill="#CCCCCC">
                            <circle id="Oval" cx="90.8" cy="2.9" r="2.2"></circle>
                            <circle id="Oval" cx="85" cy="7" r="2.2"></circle>
                            <circle id="Oval" cx="79.1" cy="11.2" r="2.2"></circle>
                            <circle id="Oval" cx="73.2" cy="15.3" r="2.2"></circle>
                            <circle id="Oval" cx="67.3" cy="19.4" r="2.2"></circle>
                            <circle id="Oval" cx="61.4" cy="23.6" r="2.2"></circle>
                            <circle id="Oval" cx="55.6" cy="27.7" r="2.2"></circle>
                            <circle id="Oval" cx="49.7" cy="31.8" r="2.2"></circle>
                            <circle id="Oval" cx="43.8" cy="36" r="2.2"></circle>
                            <circle id="Oval" cx="37.9" cy="40.1" r="2.2"></circle>
                            <circle id="Oval" cx="32.1" cy="44.2" r="2.2"></circle>
                            <circle id="Oval" cx="26.2" cy="48.4" r="2.2"></circle>
                            <circle id="Oval" cx="20.3" cy="52.5" r="2.2"></circle>
                            <circle id="Oval" cx="14.4" cy="56.6" r="2.2"></circle>
                            <circle id="Oval" cx="8.5" cy="60.8" r="2.2"></circle>
                            <circle id="Oval" cx="2.7" cy="64.9" r="2.2"></circle>
                        </g>
                        <g id="Group" transform="translate(32.000000, 42.000000)" fill="#CCCCCC">
                            <circle id="Oval" cx="90.7" cy="3" r="2.2"></circle>
                            <circle id="Oval" cx="84.8" cy="7.1" r="2.2"></circle>
                            <circle id="Oval" cx="79" cy="11.3" r="2.2"></circle>
                            <circle id="Oval" cx="73.1" cy="15.4" r="2.2"></circle>
                            <circle id="Oval" cx="67.2" cy="19.5" r="2.2"></circle>
                            <circle id="Oval" cx="61.3" cy="23.7" r="2.2"></circle>
                            <circle id="Oval" cx="55.4" cy="27.8" r="2.2"></circle>
                            <circle id="Oval" cx="49.6" cy="31.9" r="2.2"></circle>
                            <circle id="Oval" cx="43.7" cy="36.1" r="2.2"></circle>
                            <circle id="Oval" cx="37.8" cy="40.2" r="2.2"></circle>
                            <circle id="Oval" cx="31.9" cy="44.3" r="2.2"></circle>
                            <circle id="Oval" cx="26" cy="48.5" r="2.2"></circle>
                            <circle id="Oval" cx="20.2" cy="52.6" r="2.2"></circle>
                            <circle id="Oval" cx="14.3" cy="56.7" r="2.2"></circle>
                            <circle id="Oval" cx="8.4" cy="60.9" r="2.2"></circle>
                            <circle id="Oval" cx="2.5" cy="65" r="2.2"></circle>
                        </g>
                        <g id="Group" transform="translate(28.000000, 36.000000)" fill="#CCCCCC">
                            <circle id="Oval" cx="90.6" cy="3.1" r="2.2"></circle>
                            <circle id="Oval" cx="84.7" cy="7.3" r="2.2"></circle>
                            <circle id="Oval" cx="78.8" cy="11.4" r="2.2"></circle>
                            <circle id="Oval" cx="72.9" cy="15.5" r="2.2"></circle>
                            <circle id="Oval" cx="67.1" cy="19.7" r="2.2"></circle>
                            <circle id="Oval" cx="61.2" cy="23.8" r="2.2"></circle>
                            <circle id="Oval" cx="55.3" cy="27.9" r="2.2"></circle>
                            <circle id="Oval" cx="49.4" cy="32.1" r="2.2"></circle>
                            <circle id="Oval" cx="43.5" cy="36.2" r="2.2"></circle>
                            <circle id="Oval" cx="37.7" cy="40.3" r="2.2"></circle>
                            <circle id="Oval" cx="31.8" cy="44.5" r="2.2"></circle>
                            <circle id="Oval" cx="25.9" cy="48.6" r="2.2"></circle>
                            <circle id="Oval" cx="20" cy="52.7" r="2.2"></circle>
                            <circle id="Oval" cx="14.2" cy="56.9" r="2.2"></circle>
                            <circle id="Oval" cx="8.3" cy="61" r="2.2"></circle>
                            <circle id="Oval" cx="2.4" cy="65.1" r="2.2"></circle>
                        </g>
                        <g id="Group" transform="translate(24.000000, 31.000000)" fill="#CCCCCC">
                            <circle id="Oval" cx="90.4" cy="2.3" r="2.2"></circle>
                            <circle id="Oval" cx="84.6" cy="6.4" r="2.2"></circle>
                            <circle id="Oval" cx="78.7" cy="10.5" r="2.2"></circle>
                            <circle id="Oval" cx="72.8" cy="14.7" r="2.2"></circle>
                            <circle id="Oval" cx="66.9" cy="18.8" r="2.2"></circle>
                            <circle id="Oval" cx="61" cy="22.9" r="2.2"></circle>
                            <circle id="Oval" cx="55.2" cy="27.1" r="2.2"></circle>
                            <circle id="Oval" cx="49.3" cy="31.2" r="2.2"></circle>
                            <circle id="Oval" cx="43.4" cy="35.3" r="2.2"></circle>
                            <circle id="Oval" cx="37.5" cy="39.5" r="2.2"></circle>
                            <circle id="Oval" cx="31.7" cy="43.6" r="2.2"></circle>
                            <circle id="Oval" cx="25.8" cy="47.7" r="2.2"></circle>
                            <circle id="Oval" cx="19.9" cy="51.9" r="2.2"></circle>
                            <circle id="Oval" cx="14" cy="56" r="2.2"></circle>
                            <circle id="Oval" cx="8.1" cy="60.1" r="2.2"></circle>
                            <circle id="Oval" cx="2.3" cy="64.3" r="2.2"></circle>
                        </g>
                        <g id="Group" transform="translate(19.000000, 25.000000)" fill="#CCCCCC">
                            <circle id="Oval" cx="91.3" cy="2.4" r="2.2"></circle>
                            <circle id="Oval" cx="85.4" cy="6.5" r="2.2"></circle>
                            <circle id="Oval" cx="79.6" cy="10.6" r="2.2"></circle>
                            <circle id="Oval" cx="73.7" cy="14.8" r="2.2"></circle>
                            <circle id="Oval" cx="67.8" cy="18.9" r="2.2"></circle>
                            <circle id="Oval" cx="61.9" cy="23" r="2.2"></circle>
                            <circle id="Oval" cx="56" cy="27.2" r="2.2"></circle>
                            <circle id="Oval" cx="50.2" cy="31.3" r="2.2"></circle>
                            <circle id="Oval" cx="44.3" cy="35.4" r="2.2"></circle>
                            <circle id="Oval" cx="38.4" cy="39.6" r="2.2"></circle>
                            <circle id="Oval" cx="32.5" cy="43.7" r="2.2"></circle>
                            <circle id="Oval" cx="26.6" cy="47.8" r="2.2"></circle>
                            <circle id="Oval" cx="20.8" cy="52" r="2.2"></circle>
                            <circle id="Oval" cx="14.9" cy="56.1" r="2.2"></circle>
                            <circle id="Oval" cx="9" cy="60.2" r="2.2"></circle>
                            <circle id="Oval" cx="3.1" cy="64.4" r="2.2"></circle>
                        </g>
                        <g id="Group" transform="translate(15.000000, 19.000000)" fill="#CCCCCC">
                            <circle id="Oval" cx="91.2" cy="2.5" r="2.2"></circle>
                            <circle id="Oval" cx="85.3" cy="6.6" r="2.2"></circle>
                            <circle id="Oval" cx="79.4" cy="10.8" r="2.2"></circle>
                            <circle id="Oval" cx="73.5" cy="14.9" r="2.2"></circle>
                            <circle id="Oval" cx="67.7" cy="19" r="2.2"></circle>
                            <circle id="Oval" cx="61.8" cy="23.2" r="2.2"></circle>
                            <circle id="Oval" cx="55.9" cy="27.3" r="2.2"></circle>
                            <circle id="Oval" cx="50" cy="31.4" r="2.2"></circle>
                            <circle id="Oval" cx="44.1" cy="35.6" r="2.2"></circle>
                            <circle id="Oval" cx="38.3" cy="39.7" r="2.2"></circle>
                            <circle id="Oval" cx="32.4" cy="43.8" r="2.2"></circle>
                            <circle id="Oval" cx="26.5" cy="48" r="2.2"></circle>
                            <circle id="Oval" cx="20.6" cy="52.1" r="2.2"></circle>
                            <circle id="Oval" cx="14.8" cy="56.2" r="2.2"></circle>
                            <circle id="Oval" cx="8.9" cy="60.4" r="2.2"></circle>
                            <circle id="Oval" cx="3" cy="64.5" r="2.2"></circle>
                        </g>
                        <g id="Group" transform="translate(11.000000, 13.000000)" fill="#CCCCCC">
                            <circle id="Oval" cx="91" cy="2.6" r="2.2"></circle>
                            <circle id="Oval" cx="85.2" cy="6.7" r="2.2"></circle>
                            <circle id="Oval" cx="79.3" cy="10.9" r="2.2"></circle>
                            <circle id="Oval" cx="73.4" cy="15" r="2.2"></circle>
                            <circle id="Oval" cx="67.5" cy="19.1" r="2.2"></circle>
                            <circle id="Oval" cx="61.6" cy="23.3" r="2.2"></circle>
                            <circle id="Oval" cx="55.8" cy="27.4" r="2.2"></circle>
                            <circle id="Oval" cx="49.9" cy="31.5" r="2.2"></circle>
                            <circle id="Oval" cx="44" cy="35.7" r="2.2"></circle>
                            <circle id="Oval" cx="38.1" cy="39.8" r="2.2"></circle>
                            <circle id="Oval" cx="32.3" cy="43.9" r="2.2"></circle>
                            <circle id="Oval" cx="26.4" cy="48.1" r="2.2"></circle>
                            <circle id="Oval" cx="20.5" cy="52.2" r="2.2"></circle>
                            <circle id="Oval" cx="14.6" cy="56.3" r="2.2"></circle>
                            <circle id="Oval" cx="8.7" cy="60.5" r="2.2"></circle>
                            <circle id="Oval" cx="2.9" cy="64.6" r="2.2"></circle>
                        </g>
                        <g id="Group" transform="translate(7.000000, 7.000000)" fill="#CCCCCC">
                            <circle id="Oval" cx="90.9" cy="2.7" r="2.2"></circle>
                            <circle id="Oval" cx="85" cy="6.9" r="2.2"></circle>
                            <circle id="Oval" cx="79.2" cy="11" r="2.2"></circle>
                            <circle id="Oval" cx="73.3" cy="15.1" r="2.2"></circle>
                            <circle id="Oval" cx="67.4" cy="19.3" r="2.2"></circle>
                            <circle id="Oval" cx="61.5" cy="23.4" r="2.2"></circle>
                            <circle id="Oval" cx="55.6" cy="27.5" r="2.2"></circle>
                            <circle id="Oval" cx="49.8" cy="31.7" r="2.2"></circle>
                            <circle id="Oval" cx="43.9" cy="35.8" r="2.2"></circle>
                            <circle id="Oval" cx="38" cy="39.9" r="2.2"></circle>
                            <circle id="Oval" cx="32.1" cy="44.1" r="2.2"></circle>
                            <circle id="Oval" cx="26.2" cy="48.2" r="2.2"></circle>
                            <circle id="Oval" cx="20.4" cy="52.3" r="2.2"></circle>
                            <circle id="Oval" cx="14.5" cy="56.5" r="2.2"></circle>
                            <circle id="Oval" cx="8.6" cy="60.6" r="2.2"></circle>
                            <circle id="Oval" cx="2.7" cy="64.7" r="2.2"></circle>
                        </g>
                    </g>
                    <g id="wires" transform="translate(728.000000, 115.000000)" stroke-width="4.79">
                        <path d="M124.5,90.5 C124.5,90.5 136,14.7 60.2,44.3" id="Shape" stroke="#F5BF99"></path>
                        <path d="M79.3,64.4 C79.3,64.4 67.6,10.5 54.3,48.4" id="Shape" stroke="#57B1EC"></path>
                        <path d="M93,144.5 C93,144.5 96.3,83.1 30.8,65" id="Shape" stroke="#F57B92"></path>
                        <path d="M47.9,118.3 C47.9,118.3 57.4,90.2 24.9,69.1" id="Shape" stroke="#45BDAA" stroke-linecap="round"></path>
                        <path d="M26.7,59.1 C26.7,59.1 24.5,8.7 56.1,38.4" id="Shape" stroke="#F57B92"></path>
                        <path d="M19.1,73.2 C19.1,73.2 27.7,31.8 6,29.7" id="Shape" stroke="#57B1EC"></path>
                        <path d="M67.8,30.1 C67.8,30.1 89.6,14.9 65.4,14.3" id="Shape" stroke="#F57B92"></path>
                        <path d="M0.1,33.8 C0.1,33.8 27.7,59.3 13.2,77.4" id="Shape" stroke="#45BDAA" stroke-linecap="round"></path>
                        <path d="M26,33.2 C26,33.2 13.1,-0.4 47.2,0.7" id="Shape" stroke="#45BDAA" stroke-linecap="round"></path>
                    </g>
                </g>
            </g>
        </g>
    </g>
</svg>